<?xml version="1.0" encoding="UTF-8" standalone="no"?>
<!-- Created with Inkscape (http://www.inkscape.org/) -->

<svg
   xmlns:dc="http://purl.org/dc/elements/1.1/"
   xmlns:cc="http://creativecommons.org/ns#"
   xmlns:rdf="http://www.w3.org/1999/02/22-rdf-syntax-ns#"
   xmlns:svg="http://www.w3.org/2000/svg"
   xmlns="http://www.w3.org/2000/svg"
   xmlns:xlink="http://www.w3.org/1999/xlink"
   xmlns:sodipodi="http://sodipodi.sourceforge.net/DTD/sodipodi-0.dtd"
   xmlns:inkscape="http://www.inkscape.org/namespaces/inkscape"
   id="svg2"
   version="1.1"
   inkscape:version="0.48.2 r9819"
   width="205.01905"
   height="127.97857"
   xml:space="preserve"
   sodipodi:docname="BTU.svg"><metadata
     id="metadata8"><rdf:RDF><cc:Work
         rdf:about=""><dc:format>image/svg+xml</dc:format><dc:type
           rdf:resource="http://purl.org/dc/dcmitype/StillImage" /><dc:title /></cc:Work></rdf:RDF></metadata><defs
     id="defs6"><marker
       inkscape:stockid="Arrow2Mend"
       orient="auto"
       refY="0.0"
       refX="0.0"
       id="Arrow2Mend"
       style="overflow:visible;"><path
         id="path3862"
         style="font-size:12.0;fill-rule:evenodd;stroke-width:0.62500000;stroke-linejoin:round;"
         d="M 8.7185878,4.0337352 L -2.2072895,0.016013256 L 8.7185884,-4.0017078 C 6.9730900,-1.6296469 6.9831476,1.6157441 8.7185878,4.0337352 z "
         transform="scale(0.6) rotate(180) translate(0,0)" /></marker><marker
       inkscape:stockid="Arrow2Mstart"
       orient="auto"
       refY="0.0"
       refX="0.0"
       id="Arrow2Mstart"
       style="overflow:visible"><path
         id="path3859"
         style="font-size:12.0;fill-rule:evenodd;stroke-width:0.62500000;stroke-linejoin:round"
         d="M 8.7185878,4.0337352 L -2.2072895,0.016013256 L 8.7185884,-4.0017078 C 6.9730900,-1.6296469 6.9831476,1.6157441 8.7185878,4.0337352 z "
         transform="scale(0.6) translate(0,0)" /></marker><marker
       inkscape:stockid="Arrow1Lstart"
       orient="auto"
       refY="0.0"
       refX="0.0"
       id="Arrow1Lstart"
       style="overflow:visible"><path
         id="path3835"
         d="M 0.0,0.0 L 5.0,-5.0 L -12.5,0.0 L 5.0,5.0 L 0.0,0.0 z "
         style="fill-rule:evenodd;stroke:#000000;stroke-width:1.0pt;marker-start:none"
         transform="scale(0.8) translate(12.5,0)" /></marker><marker
       inkscape:stockid="Arrow1Mstart"
       orient="auto"
       refY="0.0"
       refX="0.0"
       id="Arrow1Mstart"
       style="overflow:visible"><path
         id="path3841"
         d="M 0.0,0.0 L 5.0,-5.0 L -12.5,0.0 L 5.0,5.0 L 0.0,0.0 z "
         style="fill-rule:evenodd;stroke:#000000;stroke-width:1.0pt;marker-start:none"
         transform="scale(0.4) translate(10,0)" /></marker><pattern
       inkscape:collect="always"
       xlink:href="#Strips1_5-5-4"
       id="pattern6025"
       patternTransform="matrix(-.3125,-.3125,1,-1,1.1,0)" /><pattern
       inkscape:collect="always"
       xlink:href="#Strips1_5"
       id="pattern5933"
       patternTransform="matrix(0.25,-0.25,1,1,0,0)" /><pattern
       inkscape:stockid="Stripes 1:5"
       id="Strips1_5"
       patternTransform="translate(0,0) scale(10,10)"
       height="1"
       width="6"
       patternUnits="userSpaceOnUse"
       inkscape:collect="always"><rect
         id="rect5062"
         height="2"
         width="1"
         y="-0.5"
         x="0"
         style="fill:black;stroke:none" /></pattern><marker
       inkscape:stockid="Arrow1Lend"
       orient="auto"
       refY="0.0"
       refX="0.0"
       id="Arrow1Lend"
       style="overflow:visible;"><path
         id="path3838"
         d="M 0.0,0.0 L 5.0,-5.0 L -12.5,0.0 L 5.0,5.0 L 0.0,0.0 z "
         style="fill-rule:evenodd;stroke:#000000;stroke-width:1.0pt;marker-start:none;"
         transform="scale(0.8) rotate(180) translate(12.5,0)" /></marker><pattern
       inkscape:stockid="Stripes 1:5"
       id="Strips1_5-5-4"
       patternTransform="translate(0,0) scale(10,10)"
       height="1"
       width="6"
       patternUnits="userSpaceOnUse"
       inkscape:collect="always"><rect
         id="rect5062-0-0"
         height="2"
         width="1"
         y="-0.5"
         x="0"
         style="fill:black;stroke:none" /></pattern></defs><sodipodi:namedview
     pagecolor="#ffffff"
     bordercolor="#666666"
     borderopacity="1"
     objecttolerance="10"
     gridtolerance="10"
     guidetolerance="10"
     inkscape:pageopacity="0"
     inkscape:pageshadow="2"
     inkscape:window-width="1366"
     inkscape:window-height="748"
     id="namedview4"
     showgrid="false"
     inkscape:snap-bbox="true"
     inkscape:bbox-paths="true"
     inkscape:object-paths="true"
     inkscape:bbox-nodes="true"
     inkscape:object-nodes="true"
     inkscape:zoom="0.92984543"
     inkscape:cx="114.36802"
     inkscape:cy="197.3779"
     inkscape:window-x="-2"
     inkscape:window-y="-3"
     inkscape:window-maximized="1"
     inkscape:current-layer="g10" /><g
     id="g10"
     inkscape:groupmode="layer"
     inkscape:label="BTU"
     transform="matrix(1.25,0,0,-1.25,0,127.97857)"><path
       style="fill:url(#pattern6025);fill-opacity:1;fill-rule:evenodd;stroke:none;stroke-width:0.63999999;marker:none;visibility:visible;display:inline;overflow:visible;enable-background:accumulate"
       d="m 40.57125,127.71482 55.025,0 c 0,0 3.603681,-0.53873 3.644966,-3.51249 0.04128,-2.97376 0.04128,-31.85376 0.04128,-31.85376 3.161994,-3.014749 5.935224,-6.498725 10.443754,-12.721859 l -8.8625,-2.155641 c -17.299028,24.23079 -45.163192,26.69428 -60.2925,21.673623 z"
       id="path6009"
       inkscape:connector-curvature="0"
       sodipodi:nodetypes="ccsccccc"
       transform="matrix(0.8,0,0,-0.8,0,102.38286)" /><path
       d="M 10.59,79.223 C 17.703,97.691 38.445,106.898 56.914,99.785 75.383,92.672 84.59,71.93 77.477,53.461 70.578,35.547 50.789,26.25 32.598,32.375"
       style="fill:#ffffff;stroke:#000000;stroke-opacity:1;stroke-width:0.64000000000000001;stroke-linecap:butt;stroke-linejoin:round;stroke-miterlimit:4;stroke-dasharray:none"
       id="path14" /><path
       style="fill:#ffffff;stroke:#000000;stroke-width:0.64;stroke-linecap:butt;stroke-linejoin:miter;stroke-miterlimit:4;stroke-opacity:1;stroke-dasharray:none"
       d="m 32.457199,93.884013 -32.22719899,0 0,-9.354392 32.22719899,0 z"
       id="path5925"
       inkscape:connector-curvature="0"
       sodipodi:nodetypes="ccccc" /><path
       d="m 8.652,28.379 23.805,0"
       style="fill:none;stroke:#000000;stroke-opacity:1;stroke-width:0.64;stroke-linecap:butt;stroke-linejoin:miter;stroke-miterlimit:4;stroke-dasharray:none"
       id="path54" /><path
       d="m 0.23,38.523 32.227,0"
       style="fill:none;stroke:#000000;stroke-opacity:1;stroke-width:0.64;stroke-linecap:butt;stroke-linejoin:miter;stroke-miterlimit:4;stroke-dasharray:none"
       id="path52" /><path
       d="m 0.23,71.781 32.227,0"
       style="fill:none;stroke:#000000;stroke-opacity:1;stroke-width:0.64;stroke-linecap:butt;stroke-linejoin:miter;stroke-miterlimit:4;stroke-dasharray:none"
       id="path50" /><path
       d="m 8.652,28.379004 0,-25.109 c 0,0 -0.336,-3.059 3.16,-3.059 l 64.665,0 c 0,0 2.949,-0.434 2.949,3.496 l 0,24.797"
       style="fill:none;stroke:#000000;stroke-width:0.63999999;stroke-linecap:butt;stroke-linejoin:miter;stroke-miterlimit:4;stroke-opacity:1;stroke-dasharray:none"
       id="path48"
       inkscape:connector-curvature="0" /><path
       d="M 87.785,38.434 C 85.441,34.758 82.645,31.395 79.457,28.418"
       style="fill:none;stroke:#000000;stroke-opacity:1;stroke-width:0.64000000000000001;stroke-linecap:round;stroke-linejoin:round;stroke-miterlimit:4;stroke-dasharray:none"
       id="path46" /><path
       d="m 0.23,38.523 0,33.258 7.321,7.321 24.906,0 0,-78.891"
       style="fill:none;stroke:#000000;stroke-opacity:1;stroke-width:0.64;stroke-linecap:butt;stroke-linejoin:miter;stroke-miterlimit:4;stroke-dasharray:none"
       id="path44" /><path
       d="M 8.652,28.379 C 5.398,31.414 2.547,34.852 0.168,38.613"
       style="fill:none;stroke:#000000;stroke-opacity:1;stroke-width:0.64;stroke-linecap:butt;stroke-linejoin:round;stroke-miterlimit:4;stroke-dasharray:none"
       id="path42" /><path
       d="m 80.691,40.406 0,34.739 -2.054,2.054 1.824,1.821 7.32,-7.317 0,-33.262"
       style="fill:url(#pattern5933);fill-opacity:1;fill-rule:evenodd;stroke:#000000;stroke-width:0.63999999;stroke-linecap:butt;stroke-linejoin:miter;stroke-miterlimit:4;stroke-opacity:1;stroke-dasharray:none"
       id="path40"
       inkscape:connector-curvature="0" /><path
       d="M 80.691,40.406 C 69.867,25.05 50.668,18.117 32.512,22.941"
       style="fill:none;stroke:#000000;stroke-width:0.63999999;stroke-linecap:round;stroke-linejoin:round;stroke-miterlimit:4;stroke-opacity:1;stroke-dasharray:none"
       id="path38"
       inkscape:connector-curvature="0"
       sodipodi:nodetypes="cc" /><g
       id="g34"
       transform="matrix(1,-0.226829,-0.226829,-1,0,102.38286)"
       style="stroke-width:0.62414482;stroke-miterlimit:4;stroke-dasharray:none"><path
         d="m 46.356,61.274 c 1.517,-1.82 4.222,-2.067 6.047,-0.551 1.82,1.517 2.071,4.222 0.551,6.047 -1.225,1.469 -3.276,1.954 -5.029,1.18"
         style="fill:none;stroke:#000000;stroke-opacity:1;stroke-width:0.62414482;stroke-linecap:butt;stroke-linejoin:round;stroke-miterlimit:4;stroke-dasharray:none"
         id="path36" /></g><g
       id="g30"
       transform="matrix(0.812815,1,1,-0.812815,0,102.38286)"
       style="stroke-width:0.49663639;stroke-miterlimit:4;stroke-dasharray:none"><path
         d="m -0.167,71.968 c 1.886,-0.01 3.423,1.511 3.433,3.397 0.007,1.888 -1.513,3.425 -3.4,3.435 -1.888,0.008 -3.425,-1.513 -3.432,-3.401 -0.009,-1.88 1.503,-3.413 3.382,-3.433"
         style="fill:none;stroke:#000000;stroke-opacity:1;stroke-width:0.49663639;stroke-linecap:butt;stroke-linejoin:round;stroke-miterlimit:4;stroke-dasharray:none"
         id="path32" /></g><g
       id="g26"
       transform="matrix(1,0.786325,0.786325,-1,0,102.38286)"
       style="stroke-width:0.50309444;stroke-miterlimit:4;stroke-dasharray:none"><path
         d="m 9.68,71.838 c 1.912,-0.008 3.47,1.533 3.478,3.446 0.01,1.91 -1.532,3.468 -3.444,3.475 -1.91,0.01 -3.468,-1.531 -3.476,-3.443 -0.011,-1.904 1.52,-3.458 3.425,-3.476"
         style="fill:none;stroke:#000000;stroke-opacity:1;stroke-width:0.50309444;stroke-linecap:butt;stroke-linejoin:round;stroke-miterlimit:4;stroke-dasharray:none"
         id="path28" /></g><g
       id="g22"
       transform="matrix(1,0.476747,0.476747,-1,0,102.38286)"
       style="stroke-width:0.57770587;stroke-miterlimit:4;stroke-dasharray:none"><path
         d="m 21.859,78.823 c 2.196,-0.011 3.982,1.758 3.993,3.955 0.01,2.192 -1.761,3.981 -3.954,3.994 -2.196,0.008 -3.984,-1.763 -3.992,-3.958 -0.013,-2.186 1.747,-3.968 3.934,-3.992"
         style="fill:none;stroke:#000000;stroke-opacity:1;stroke-width:0.57770587;stroke-linecap:butt;stroke-linejoin:round;stroke-miterlimit:4;stroke-dasharray:none"
         id="path24" /></g><g
       id="g18"
       transform="matrix(1,0.227622,0.227622,-1,0,102.38286)"
       style="stroke-width:0.62403789;stroke-miterlimit:4;stroke-dasharray:none"><path
         d="m 34.045,78.742 c 2.37,-0.012 4.302,1.901 4.313,4.27 0.012,2.37 -1.901,4.302 -4.27,4.314 -2.374,0.01 -4.306,-1.902 -4.317,-4.272 -0.009,-2.362 1.89,-4.289 4.251,-4.314"
         style="fill:none;stroke:#000000;stroke-opacity:1;stroke-width:0.62403789;stroke-linecap:butt;stroke-linejoin:round;stroke-miterlimit:4;stroke-dasharray:none"
         id="path20" /></g><path
       d="m 44.012,30.504 c 2.433,0.012 4.414,-1.949 4.426,-4.383 0.011,-2.43 -1.95,-4.41 -4.383,-4.422 -2.43,-0.011 -4.41,1.949 -4.422,4.379 -0.012,2.426 1.933,4.403 4.359,4.426"
       style="fill:none;stroke:#000000;stroke-opacity:1;stroke-width:0.64;stroke-linecap:butt;stroke-linejoin:round;stroke-miterlimit:4;stroke-dasharray:none"
       id="path16" /><path
       style="fill:none;stroke:#000000;stroke-width:0.63999999;stroke-linecap:butt;stroke-linejoin:miter;stroke-miterlimit:4;stroke-opacity:1;stroke-dasharray:none;marker-end:url(#Arrow1Lend)"
       d="m 92.981547,51.191428 34.835963,0"
       id="path3830"
       inkscape:connector-curvature="0" /><path
       sodipodi:nodetypes="ccccc"
       inkscape:connector-curvature="0"
       id="path4307"
       d="m 93.549595,93.884013 -17.215073,0 0,-9.354392 17.215073,0 c 4.233822,4.700506 -4.319138,4.409021 0,9.354392 z"
       style="fill:url(#pattern5933);fill-opacity:1;fill-rule:evenodd;stroke:#000000;stroke-width:0.31999999;stroke-miterlimit:4;stroke-opacity:1;stroke-dasharray:none" /><path
       sodipodi:nodetypes="cc"
       inkscape:connector-curvature="0"
       id="path4309"
       d="m 93.549595,93.884013 -26.571287,0"
       style="fill:none;stroke:#000000;stroke-width:0.63999999;stroke-linecap:round;stroke-linejoin:miter;stroke-miterlimit:4;stroke-opacity:1;stroke-dasharray:none" /><path
       sodipodi:nodetypes="cc"
       inkscape:connector-curvature="0"
       id="path4311"
       d="m 93.549595,84.529621 -18.580287,0"
       style="fill:none;stroke:#000000;stroke-width:0.64000005;stroke-linecap:round;stroke-linejoin:miter;stroke-miterlimit:4;stroke-opacity:1;stroke-dasharray:none" /><path
       style="fill:none;stroke:#000000;stroke-width:0.63999999;stroke-linecap:butt;stroke-linejoin:miter;stroke-miterlimit:4;stroke-opacity:1;stroke-dasharray:none;marker-start:url(#Arrow2Mstart);marker-end:url(#Arrow2Mend)"
       d="m 99.878556,90.250686 0,-11.876491"
       id="path6154"
       inkscape:connector-curvature="0" /><path
       style="fill:none;stroke:#000000;stroke-width:0.8;stroke-linecap:butt;stroke-linejoin:miter;stroke-opacity:1;stroke-miterlimit:4;stroke-dasharray:none"
       d="m 95.418152,22.316544 0,-11.69299"
       id="path6912"
       inkscape:connector-curvature="0"
       transform="matrix(0.8,0,0,-0.8,0,102.38286)" /><text
       xml:space="preserve"
       style="font-size:12.80000019000000044px;font-style:normal;font-variant:normal;font-weight:bold;font-stretch:normal;line-height:125%;letter-spacing:0px;word-spacing:0px;writing-mode:lr-tb;fill:#000000;fill-opacity:1;stroke:none;font-family:Nimbus Sans L;-inkscape-font-specification:Nimbus Sans L Bold"
       x="48.893345"
       y="-5.4035878"
       id="text3027"
       sodipodi:linespacing="125%"
       transform="scale(1,-1)"><tspan
         sodipodi:role="line"
         id="tspan3029"
         x="48.893345"
         y="-5.4035878">BTU</tspan></text>
</g></svg>