<?xml version="1.0" encoding="UTF-8" standalone="no"?>
<svg
   xmlns:dc="http://purl.org/dc/elements/1.1/"
   xmlns:cc="http://creativecommons.org/ns#"
   xmlns:rdf="http://www.w3.org/1999/02/22-rdf-syntax-ns#"
   xmlns:svg="http://www.w3.org/2000/svg"
   xmlns="http://www.w3.org/2000/svg"
   xmlns:sodipodi="http://sodipodi.sourceforge.net/DTD/sodipodi-0.dtd"
   xmlns:inkscape="http://www.inkscape.org/namespaces/inkscape"
   style="fill-opacity:1; color-rendering:auto; color-interpolation:auto; stroke:black; text-rendering:auto; stroke-linecap:square; stroke-miterlimit:10; stroke-opacity:1; shape-rendering:auto; fill:black; stroke-dasharray:none; font-weight:normal; stroke-width:1; font-family:'Dialog'; font-style:normal; stroke-linejoin:miter; font-size:12px; stroke-dashoffset:0; image-rendering:auto;"
   width="766"
   height="635"
   id="svg3336"
   version="1.1"
   inkscape:version="0.91 r13725"
   sodipodi:docname="JND_normal_boxplot.svg">
  <metadata
     id="metadata3579">
    <rdf:RDF>
      <cc:Work
         rdf:about="">
        <dc:format>image/svg+xml</dc:format>
        <dc:type
           rdf:resource="http://purl.org/dc/dcmitype/StillImage" />
        <dc:title></dc:title>
      </cc:Work>
    </rdf:RDF>
  </metadata>
  <sodipodi:namedview
     pagecolor="#ffffff"
     bordercolor="#666666"
     borderopacity="1"
     objecttolerance="10"
     gridtolerance="10"
     guidetolerance="10"
     inkscape:pageopacity="0"
     inkscape:pageshadow="2"
     inkscape:window-width="1920"
     inkscape:window-height="1057"
     id="namedview3577"
     showgrid="false"
     inkscape:zoom="0.98883594"
     inkscape:cx="344.19979"
     inkscape:cy="298.37635"
     inkscape:window-x="1358"
     inkscape:window-y="-8"
     inkscape:window-maximized="1"
     inkscape:current-layer="g3339" />
  <!--Generated by the Batik Graphics2D SVG Generator-->
  <defs
     id="genericDefs">
    <clipPath
       clipPathUnits="userSpaceOnUse"
       id="clipPath3583">
      <rect
         style="opacity:1;fill:#ff0000;fill-opacity:1;fill-rule:nonzero;stroke:#ff0000;stroke-width:8;stroke-linecap:square;stroke-linejoin:miter;stroke-miterlimit:4;stroke-dasharray:none;stroke-dashoffset:0;stroke-opacity:1"
         id="rect3585"
         width="675.54181"
         height="594.63861"
         x="24.270962"
         y="36.316257" />
    </clipPath>
  </defs>
  <g
     id="g3339"
     clip-path="url(#clipPath3583)">
    <defs
       id="defs1">
      <clipPath
         clipPathUnits="userSpaceOnUse"
         id="clipPath1">
        <path
           d="M0 0 L766 0 L766 635 L0 635 L0 0 Z"
           id="path3343" />
      </clipPath>
    </defs>
    <g
       style="fill:white; stroke:white;"
       id="g3345">
      <rect
         x="0"
         y="0"
         width="766"
         style="clip-path:url(#clipPath1); stroke:none;"
         height="635"
         id="rect3347"
         clip-path="url(#clipPath1)" />
    </g>
    <g
       style="fill:white; text-rendering:optimizeSpeed; color-rendering:optimizeSpeed; image-rendering:optimizeSpeed; shape-rendering:crispEdges; color-interpolation:sRGB; stroke:white;"
       id="g3349">
      <rect
         x="0"
         width="766"
         height="635"
         y="0"
         style="stroke:none;"
         id="rect3351" />
      <path
         style="stroke:none;"
         d="M100 565 L693 565 L693 48 L100 48 Z"
         id="path3353" />
    </g>
    <g
       style="stroke-linecap:butt; fill-opacity:0.149; fill:rgb(38,38,38); text-rendering:geometricPrecision; color-rendering:optimizeQuality; image-rendering:optimizeQuality; stroke-linejoin:round; color-interpolation:linearRGB; stroke:rgb(38,38,38); stroke-width:0.6667; stroke-opacity:0.149;"
       id="g3355">
      <line
         y2="48"
         style="fill:none;"
         x1="198.8333"
         x2="198.8333"
         y1="565"
         id="line3357" />
      <line
         y2="48"
         style="fill:none;"
         x1="396.5"
         x2="396.5"
         y1="565"
         id="line3359" />
      <line
         y2="48"
         style="fill:none;"
         x1="594.1667"
         x2="594.1667"
         y1="565"
         id="line3361" />
      <line
         y2="542.9537"
         style="fill:none;"
         x1="693"
         x2="100"
         y1="542.9537"
         id="line3363" />
      <line
         y2="461.4967"
         style="fill:none;"
         x1="693"
         x2="100"
         y1="461.4967"
         id="line3365" />
      <line
         y2="380.0396"
         style="fill:none;"
         x1="693"
         x2="100"
         y1="380.0396"
         id="line3367" />
      <line
         y2="298.5826"
         style="fill:none;"
         x1="693"
         x2="100"
         y1="298.5826"
         id="line3369" />
      <line
         y2="217.1256"
         style="fill:none;"
         x1="693"
         x2="100"
         y1="217.1256"
         id="line3371" />
      <line
         y2="135.6686"
         style="fill:none;"
         x1="693"
         x2="100"
         y1="135.6686"
         id="line3373" />
      <line
         y2="54.2116"
         style="fill:none;"
         x1="693"
         x2="100"
         y1="54.2116"
         id="line3375" />
      <line
         x1="100"
         x2="693"
         y1="565"
         style="stroke-linecap:square; fill-opacity:1; fill:none; stroke-opacity:1;"
         y2="565"
         id="line3377" />
      <line
         x1="100"
         x2="693"
         y1="48"
         style="stroke-linecap:square; fill-opacity:1; fill:none; stroke-opacity:1;"
         y2="48"
         id="line3379" />
      <line
         x1="198.8333"
         x2="198.8333"
         y1="565"
         style="stroke-linecap:square; fill-opacity:1; fill:none; stroke-opacity:1;"
         y2="559.07"
         id="line3381" />
      <line
         x1="396.5"
         x2="396.5"
         y1="565"
         style="stroke-linecap:square; fill-opacity:1; fill:none; stroke-opacity:1;"
         y2="559.07"
         id="line3383" />
      <line
         x1="594.1667"
         x2="594.1667"
         y1="565"
         style="stroke-linecap:square; fill-opacity:1; fill:none; stroke-opacity:1;"
         y2="559.07"
         id="line3385" />
      <line
         x1="198.8333"
         x2="198.8333"
         y1="48"
         style="stroke-linecap:square; fill-opacity:1; fill:none; stroke-opacity:1;"
         y2="53.93"
         id="line3387" />
      <line
         x1="396.5"
         x2="396.5"
         y1="48"
         style="stroke-linecap:square; fill-opacity:1; fill:none; stroke-opacity:1;"
         y2="53.93"
         id="line3389" />
      <line
         x1="594.1667"
         x2="594.1667"
         y1="48"
         style="stroke-linecap:square; fill-opacity:1; fill:none; stroke-opacity:1;"
         y2="53.93"
         id="line3391" />
    </g>
    <g
       transform="translate(198.8333,571.9333)"
       style="font-size:21px; fill:rgb(38,38,38); text-rendering:geometricPrecision; color-rendering:optimizeQuality; image-rendering:optimizeQuality; font-family:'Times New Roman'; color-interpolation:linearRGB; stroke:rgb(38,38,38); font-weight:bold;"
       id="g3393">
      <path
         style="stroke:none;"
         d="M-11.6562 5.8125 L-11.6562 17.1875 Q-11.6562 18.4688 -11.5469 18.8203 Q-11.4375 19.1719 -11.0781 19.3984 Q-10.7188 19.625 -9.9219 19.625 L-9.6094 19.625 L-9.6094 20 L-16.9375 20 L-16.9375 19.625 L-16.5625 19.625 Q-15.6719 19.625 -15.2891 19.4141 Q-14.9062 19.2031 -14.7734 18.8516 Q-14.6406 18.5 -14.6406 17.1875 L-14.6406 9.9688 Q-14.6406 9 -14.7344 8.7656 Q-14.8281 8.5312 -15.0781 8.3594 Q-15.3281 8.1875 -15.6562 8.1875 Q-16.1875 8.1875 -16.9375 8.5156 L-17.1094 8.1406 L-12 5.8125 L-11.6562 5.8125 ZM-5.375 16.8438 Q-4.6562 16.8438 -4.1562 17.3438 Q-3.6562 17.8438 -3.6562 18.5469 Q-3.6562 19.2656 -4.1641 19.7578 Q-4.6719 20.25 -5.375 20.25 Q-6.0781 20.25 -6.5781 19.7578 Q-7.0781 19.2656 -7.0781 18.5469 Q-7.0781 17.8438 -6.5781 17.3438 Q-6.0781 16.8438 -5.375 16.8438 ZM0.3594 13.0312 L0.3594 12.6719 Q1.5312 12.3281 1.9766 12.0391 Q2.4219 11.75 2.75 11.1484 Q3.0781 10.5469 3.0781 9.9375 Q3.0781 9.0781 2.4609 8.4688 Q1.8438 7.8594 0.9219 7.8594 Q-0.5156 7.8594 -1.5156 9.375 L-1.9062 9.25 Q-1.1562 7.5312 -0.0078 6.6719 Q1.1406 5.8125 2.5625 5.8125 Q4 5.8125 4.9453 6.6953 Q5.8906 7.5781 5.8906 8.75 Q5.8906 9.5156 5.4531 10.2344 Q5.0156 10.9531 4.0781 11.4844 Q5.2812 12.0781 5.9141 12.9297 Q6.5469 13.7812 6.5469 15.0781 Q6.5469 17.25 4.9688 18.7734 Q3.3906 20.2969 0.75 20.2969 Q-1.0156 20.2969 -1.8281 19.7188 Q-2.4062 19.2969 -2.4062 18.6562 Q-2.4062 18.1875 -2.0703 17.8516 Q-1.7344 17.5156 -1.2969 17.5156 Q-0.9531 17.5156 -0.6562 17.6562 Q-0.5 17.75 0.5 18.5625 Q1.5 19.375 2.375 19.375 Q3.1406 19.375 3.6797 18.7734 Q4.2188 18.1719 4.2188 17.25 Q4.2188 15.8438 3.2344 14.6641 Q2.25 13.4844 0.3594 13.0312 ZM8.2656 14.7656 L14.875 5.8125 L16.125 5.8125 L16.125 14.7656 L17.4062 14.7656 L17.4062 16.875 L16.125 16.875 L16.125 20 L13.3125 20 L13.3125 16.875 L8.2656 16.875 L8.2656 14.7656 ZM9.2656 14.7656 L13.3125 14.7656 L13.3125 9.2812 L9.2656 14.7656 Z"
         id="path3395" />
    </g>
    <g
       transform="translate(396.5,571.9333)"
       style="font-size:21px; fill:rgb(38,38,38); text-rendering:geometricPrecision; color-rendering:optimizeQuality; image-rendering:optimizeQuality; font-family:'Times New Roman'; color-interpolation:linearRGB; stroke:rgb(38,38,38); font-weight:bold;"
       id="g3397">
      <path
         style="stroke:none;"
         d="M-7.0469 20 L-15.2344 20 L-15.2344 19.7812 Q-11.4688 15.2969 -10.6641 13.75 Q-9.8594 12.2031 -9.8594 10.7188 Q-9.8594 9.6406 -10.5312 8.9297 Q-11.2031 8.2188 -12.1562 8.2188 Q-13.7344 8.2188 -14.6094 9.7969 L-14.9844 9.6562 Q-14.4375 7.6875 -13.3125 6.75 Q-12.1875 5.8125 -10.7031 5.8125 Q-9.6562 5.8125 -8.7812 6.3047 Q-7.9062 6.7969 -7.4141 7.6484 Q-6.9219 8.5 -6.9219 9.25 Q-6.9219 10.625 -7.6875 12.0156 Q-8.7188 13.9219 -12.2031 17.3125 L-9.2031 17.3125 Q-8.0938 17.3125 -7.7578 17.2188 Q-7.4219 17.125 -7.2109 16.9062 Q-7 16.6875 -6.6406 15.9844 L-6.2812 15.9844 L-7.0469 20 ZM-2.625 16.8438 Q-1.9062 16.8438 -1.4062 17.3438 Q-0.9062 17.8438 -0.9062 18.5469 Q-0.9062 19.2656 -1.4141 19.7578 Q-1.9219 20.25 -2.625 20.25 Q-3.3281 20.25 -3.8281 19.7578 Q-4.3281 19.2656 -4.3281 18.5469 Q-4.3281 17.8438 -3.8281 17.3438 Q-3.3281 16.8438 -2.625 16.8438 ZM9.7344 13.0469 Q9.7344 15.125 9.1406 16.9375 Q8.7969 18.0469 8.2109 18.75 Q7.625 19.4531 6.875 19.8672 Q6.125 20.2812 5.2344 20.2812 Q4.2344 20.2812 3.4219 19.7734 Q2.6094 19.2656 1.9844 18.3125 Q1.5312 17.6094 1.2031 16.4531 Q0.7656 14.8906 0.7656 13.2188 Q0.7656 10.9531 1.3906 9.0469 Q1.9219 7.4844 2.9844 6.6484 Q4.0469 5.8125 5.2344 5.8125 Q6.4531 5.8125 7.5 6.6328 Q8.5469 7.4531 9.0469 8.8594 Q9.7344 10.7656 9.7344 13.0469 ZM6.5781 13.0312 Q6.5781 9.375 6.5312 8.7656 Q6.4219 7.3438 6.0469 6.8438 Q5.7812 6.5156 5.2031 6.5156 Q4.7656 6.5156 4.5156 6.7656 Q4.125 7.125 3.9922 8.0312 Q3.8594 8.9375 3.8594 14.3594 Q3.8594 17.3125 4.0781 18.3125 Q4.2188 19.0469 4.5078 19.2891 Q4.7969 19.5312 5.2656 19.5312 Q5.7812 19.5312 6.0469 19.2031 Q6.4688 18.6406 6.5312 17.4375 L6.5781 13.0312 ZM11.1406 20.2812 L11.1406 20 Q12.8438 19.6094 14.0312 18.8516 Q15.2188 18.0938 15.9062 16.9766 Q16.5938 15.8594 16.875 14.4062 Q16.25 14.7344 15.7969 14.8594 Q15.3438 14.9844 14.8594 14.9844 Q13.2812 14.9844 12.2266 13.8438 Q11.1719 12.7031 11.1719 10.7344 Q11.1719 9.3594 11.7422 8.2109 Q12.3125 7.0625 13.3672 6.4375 Q14.4219 5.8125 15.5625 5.8125 Q16.7812 5.8125 17.8672 6.5078 Q18.9531 7.2031 19.6016 8.5234 Q20.25 9.8438 20.25 11.5469 Q20.25 13.7344 19.2031 15.7422 Q18.1562 17.75 16.0703 18.9688 Q13.9844 20.1875 11.1406 20.2812 ZM17.0312 13.5469 Q17.1406 12.3906 17.1406 11.5156 Q17.1406 9.6562 16.7031 8.0469 Q16.4531 7.1562 15.9688 6.7344 Q15.7188 6.5 15.3125 6.5 Q14.7969 6.5 14.5156 6.9531 Q14.1094 7.5469 14.1094 9.25 Q14.1094 12.0938 14.7812 13.1719 Q15.2344 13.875 15.9688 13.875 Q16.375 13.875 17.0312 13.5469 Z"
         id="path3399" />
    </g>
    <g
       transform="translate(594.1667,571.9333)"
       style="font-size:21px; fill:rgb(38,38,38); text-rendering:geometricPrecision; color-rendering:optimizeQuality; image-rendering:optimizeQuality; font-family:'Times New Roman'; color-interpolation:linearRGB; stroke:rgb(38,38,38); font-weight:bold;"
       id="g3401">
      <path
         style="stroke:none;"
         d="M-9.7969 20 L-17.9844 20 L-17.9844 19.7812 Q-14.2188 15.2969 -13.4141 13.75 Q-12.6094 12.2031 -12.6094 10.7188 Q-12.6094 9.6406 -13.2812 8.9297 Q-13.9531 8.2188 -14.9062 8.2188 Q-16.4844 8.2188 -17.3594 9.7969 L-17.7344 9.6562 Q-17.1875 7.6875 -16.0625 6.75 Q-14.9375 5.8125 -13.4531 5.8125 Q-12.4062 5.8125 -11.5312 6.3047 Q-10.6562 6.7969 -10.1641 7.6484 Q-9.6719 8.5 -9.6719 9.25 Q-9.6719 10.625 -10.4375 12.0156 Q-11.4688 13.9219 -14.9531 17.3125 L-11.9531 17.3125 Q-10.8438 17.3125 -10.5078 17.2188 Q-10.1719 17.125 -9.9609 16.9062 Q-9.75 16.6875 -9.3906 15.9844 L-9.0312 15.9844 L-9.7969 20 ZM-5.375 16.8438 Q-4.6562 16.8438 -4.1562 17.3438 Q-3.6562 17.8438 -3.6562 18.5469 Q-3.6562 19.2656 -4.1641 19.7578 Q-4.6719 20.25 -5.375 20.25 Q-6.0781 20.25 -6.5781 19.7578 Q-7.0781 19.2656 -7.0781 18.5469 Q-7.0781 17.8438 -6.5781 17.3438 Q-6.0781 16.8438 -5.375 16.8438 ZM0.4531 6.0938 L6.9531 6.0938 L5.9219 8.7344 L0.4531 8.7344 L-0.0781 10.125 Q3.4688 10.2656 5.375 11.8906 Q6.9375 13.2344 6.9375 15.2344 Q6.9375 16.5156 6.2109 17.7422 Q5.4844 18.9688 4.1641 19.625 Q2.8438 20.2812 1.2656 20.2812 Q-0.4375 20.2812 -1.3594 19.6562 Q-1.9844 19.2031 -1.9844 18.625 Q-1.9844 18.1875 -1.6562 17.8516 Q-1.3281 17.5156 -0.8906 17.5156 Q-0.4844 17.5156 -0.0703 17.6797 Q0.3438 17.8438 1.3281 18.5312 Q1.9531 18.9688 2.4062 19.125 Q2.7188 19.25 3.125 19.25 Q3.9688 19.25 4.5547 18.6328 Q5.1406 18.0156 5.1406 17.1562 Q5.1406 15.3594 3.3359 14.2266 Q1.5312 13.0938 -1.2188 13.0938 Q-1.4844 13.0938 -2.0469 13.1094 L0.4531 6.0938 ZM14.5938 5.8125 L14.5938 17.1875 Q14.5938 18.4688 14.7031 18.8203 Q14.8125 19.1719 15.1719 19.3984 Q15.5312 19.625 16.3281 19.625 L16.6406 19.625 L16.6406 20 L9.3125 20 L9.3125 19.625 L9.6875 19.625 Q10.5781 19.625 10.9609 19.4141 Q11.3438 19.2031 11.4766 18.8516 Q11.6094 18.5 11.6094 17.1875 L11.6094 9.9688 Q11.6094 9 11.5156 8.7656 Q11.4219 8.5312 11.1719 8.3594 Q10.9219 8.1875 10.5938 8.1875 Q10.0625 8.1875 9.3125 8.5156 L9.1406 8.1406 L14.25 5.8125 L14.5938 5.8125 Z"
         id="path3403" />
    </g>
    <g
       transform="matrix(1.35,0,0,1.35,396.67803,592.83897)"
       style="font-weight:bold;font-size:23px;font-family:'Times New Roman';color-interpolation:linearRGB;fill:#262626;stroke:#262626;color-rendering:optimizeQuality;image-rendering:optimizeQuality;text-rendering:geometricPrecision"
       id="g3405">
      <path
         style="stroke:none"
         d="m -123.2656,12.9219 q 2.1718,0.5156 3.0468,1.2343 1.25,1.0157 1.25,2.6407 0,1.7187 -1.375,2.8437 Q -122.0469,21 -125.2812,21 l -7.7344,0 0,-0.4219 q 1.0468,0 1.4297,-0.1953 0.3828,-0.1953 0.5312,-0.5078 0.1485,-0.3125 0.1485,-1.5469 l 0,-9.8906 q 0,-1.2344 -0.1485,-1.5547 -0.1484,-0.3203 -0.5312,-0.5078 -0.3829,-0.1875 -1.4297,-0.1875 l 0,-0.4219 7.2968,0 q 2.625,0 3.711,0.4688 1.0859,0.4687 1.7187,1.3984 0.6329,0.9297 0.6329,1.961 0,1.1093 -0.8047,1.9687 -0.8047,0.8594 -2.8047,1.3594 z m -4.0938,-0.2969 q 1.5938,0 2.3516,-0.3594 0.7578,-0.3594 1.164,-1.0156 0.4063,-0.6562 0.4063,-1.6562 0,-1.0157 -0.3984,-1.6641 -0.3985,-0.6485 -1.1407,-0.9844 -0.7422,-0.3359 -2.3828,-0.3203 l 0,6 z m 0,0.875 0,4.8906 -0.0156,0.5469 q 0,0.6094 0.3125,0.9219 0.3125,0.3125 0.9219,0.3125 0.8906,0 1.6484,-0.3985 0.7578,-0.3984 1.1641,-1.1562 0.4062,-0.7578 0.4062,-1.6953 0,-1.0625 -0.4922,-1.9141 -0.4921,-0.8516 -1.3593,-1.1875 -0.8672,-0.3359 -2.586,-0.3203 z m 14.3252,-3 0,2.375 q 1.0469,-1.625 1.836,-2.1562 0.789,-0.5313 1.5234,-0.5313 0.625,0 1,0.3828 0.375,0.3828 0.375,1.1016 0,0.75 -0.3672,1.164 -0.3672,0.4141 -0.8828,0.4141 -0.5938,0 -1.0313,-0.3828 -0.4375,-0.3828 -0.5156,-0.4297 -0.1094,-0.0625 -0.25,-0.0625 -0.3281,0 -0.625,0.25 -0.4531,0.375 -0.7031,1.0938 -0.3594,1.0781 -0.3594,2.3906 l 0,2.4218 0.0156,0.625 q 0,0.6407 0.0782,0.8282 0.1406,0.2968 0.4062,0.4375 0.2656,0.1406 0.8906,0.1719 l 0,0.4062 -5.6718,0 0,-0.4062 q 0.6875,-0.0469 0.9297,-0.3672 0.2421,-0.3204 0.2421,-1.6954 l 0,-5.8124 q 0,-0.8907 -0.0937,-1.1407 -0.1094,-0.3125 -0.3281,-0.4609 -0.2188,-0.1484 -0.75,-0.1953 l 0,-0.4219 4.2812,0 z m 11.646,8.9531 q -1.9062,1.6875 -3.4375,1.6875 -0.9062,0 -1.5,-0.5859 -0.5937,-0.5859 -0.5937,-1.4766 0,-1.2031 1.0312,-2.164 1.0313,-0.961 4.5,-2.5547 l 0,-1.0469 q 0,-1.2031 -0.125,-1.5078 -0.125,-0.3047 -0.4844,-0.5391 -0.3593,-0.2344 -0.8125,-0.2344 -0.7343,0 -1.2031,0.3282 -0.2812,0.2031 -0.2812,0.4687 0,0.25 0.3125,0.5938 0.4218,0.4843 0.4218,0.9375 0,0.5468 -0.4062,0.9297 -0.4063,0.3828 -1.0781,0.3828 -0.7032,0 -1.1797,-0.4219 -0.4766,-0.4219 -0.4766,-1 0,-0.8125 0.6406,-1.5469 0.6407,-0.7343 1.7813,-1.125 1.1406,-0.3906 2.375,-0.3906 1.5,0 2.3672,0.6328 0.8672,0.6328 1.1328,1.3672 0.1562,0.4844 0.1562,2.1719 l 0,4.0781 q 0,0.7187 0.0547,0.9063 0.0547,0.1874 0.1719,0.2734 0.1172,0.0859 0.2578,0.0859 0.2969,0 0.5938,-0.4062 l 0.3437,0.2656 q -0.5625,0.8281 -1.164,1.2031 -0.6016,0.375 -1.3672,0.375 -0.9063,0 -1.4063,-0.4218 -0.5,-0.4219 -0.625,-1.2657 z m 0,-0.8281 0,-3.5156 q -1.3437,0.7968 -2.0156,1.7187 -0.4375,0.5938 -0.4375,1.2188 0,0.5156 0.375,0.9062 0.2812,0.3125 0.7812,0.3125 0.5625,0 1.2969,-0.6406 z m 9.9844,-12.8594 0,10.0156 2.4375,-2.3906 q 0.75,-0.7187 0.9375,-1.0468 0.1875,-0.3282 0.1875,-0.625 0,-0.3126 -0.25,-0.5157 -0.25,-0.2031 -0.9688,-0.2812 l 0,-0.4219 4.7032,0 0,0.4219 q -0.6719,0.0312 -1.1797,0.3125 -0.5078,0.2812 -1.9766,1.7187 l -1.1406,1.125 2.4687,3.625 q 1.5,2.2031 1.7813,2.4688 0.375,0.375 0.9531,0.4219 l 0,0.4062 -5.4219,0 0,-0.4062 q 0.3594,0 0.5235,-0.1329 0.164,-0.1328 0.164,-0.289 0,-0.2657 -0.4687,-0.9531 l -2.0781,-3.0469 -0.6719,0.6562 0,1.8907 q 0,1.2031 0.2187,1.5 0.2188,0.2968 0.9219,0.375 l 0,0.4062 -5.4219,0 0,-0.4062 q 0.6563,-0.0626 0.9375,-0.4219 0.1875,-0.25 0.1875,-1.4531 l 0,-10.6719 q 0,-1.1875 -0.2187,-1.4766 -0.2188,-0.2891 -0.9063,-0.3828 l 0,-0.4219 4.2813,0 z m 17.4165,9.6094 -5.7656,0 q 0.1093,2.0938 1.1093,3.2969 0.7813,0.9375 1.875,0.9375 0.6719,0 1.2188,-0.375 0.5469,-0.375 1.1719,-1.3594 l 0.3906,0.25 q -0.8594,1.7344 -1.8906,2.4609 -1.0313,0.7266 -2.3907,0.7266 -2.3281,0 -3.5312,-1.7969 -0.9688,-1.4531 -0.9688,-3.5937 0,-2.625 1.4219,-4.1797 1.4219,-1.5547 3.3281,-1.5547 1.5938,0 2.7657,1.3047 1.1718,1.3047 1.2656,3.8828 z m -2.7656,-0.75 q 0,-1.8125 -0.1953,-2.4844 -0.1954,-0.6718 -0.6172,-1.0312 -0.2344,-0.1875 -0.625,-0.1875 -0.5782,0 -0.9532,0.5625 -0.6562,1 -0.6562,2.75 l 0,0.3906 3.0469,0 z m 15.2553,-0.5156 0,4.2187 q 0,1.2344 0.1563,1.5547 0.1562,0.3203 0.5391,0.5078 0.3828,0.1875 1.4296,0.1875 l 0,0.4219 -7.75,0 0,-0.4219 q 1.0625,0 1.4375,-0.1953 0.375,-0.1953 0.5313,-0.5078 0.1562,-0.3125 0.1562,-1.5469 l 0,-9.8906 q 0,-1.2344 -0.1562,-1.5547 -0.1563,-0.3203 -0.5391,-0.5078 -0.3828,-0.1875 -1.4297,-0.1875 l 0,-0.4219 6.6407,0 q 3.2812,0 4.7109,1.1719 1.4297,1.1719 1.4297,2.9219 0,1.4844 -0.9219,2.539 -0.9219,1.0547 -2.5469,1.4297 -1.0781,0.2813 -3.6875,0.2813 z m 0,-7.4688 0,6.5938 q 0.375,0.0156 0.5625,0.0156 1.375,0 2.1172,-0.8125 0.7422,-0.8125 0.7422,-2.5156 0,-1.7031 -0.7422,-2.4922 -0.7422,-0.7891 -2.2109,-0.7891 l -0.4688,0 z m 14.4087,12.8125 q -1.9062,1.6875 -3.4375,1.6875 -0.9062,0 -1.5,-0.5859 -0.5937,-0.5859 -0.5937,-1.4766 0,-1.2031 1.0312,-2.164 1.0313,-0.961 4.5,-2.5547 l 0,-1.0469 q 0,-1.2031 -0.125,-1.5078 -0.125,-0.3047 -0.4843,-0.5391 -0.3594,-0.2344 -0.8125,-0.2344 -0.7344,0 -1.2032,0.3282 -0.2812,0.2031 -0.2812,0.4687 0,0.25 0.3125,0.5938 0.4219,0.4843 0.4219,0.9375 0,0.5468 -0.4063,0.9297 -0.4062,0.3828 -1.0781,0.3828 -0.7031,0 -1.1797,-0.4219 -0.4766,-0.4219 -0.4766,-1 0,-0.8125 0.6407,-1.5469 0.6406,-0.7343 1.7812,-1.125 1.1406,-0.3906 2.375,-0.3906 1.5,0 2.3672,0.6328 0.8672,0.6328 1.1328,1.3672 0.1563,0.4844 0.1563,2.1719 l 0,4.0781 q 0,0.7187 0.0546,0.9063 0.0547,0.1874 0.1719,0.2734 0.1172,0.0859 0.2578,0.0859 0.2969,0 0.5938,-0.4062 l 0.3437,0.2656 q -0.5625,0.8281 -1.164,1.2031 -0.6016,0.375 -1.3672,0.375 -0.9063,0 -1.4063,-0.4218 -0.5,-0.4219 -0.625,-1.2657 z m 0,-0.8281 0,-3.5156 q -1.3437,0.7968 -2.0156,1.7187 -0.4375,0.5938 -0.4375,1.2188 0,0.5156 0.375,0.9062 0.2813,0.3125 0.7813,0.3125 0.5625,0 1.2968,-0.6406 z m 15.9219,-12.8594 0,12.0938 q 0,1.2187 0.0625,1.4375 0.0938,0.375 0.3438,0.5547 0.25,0.1796 0.8906,0.2265 l 0,0.375 -4.4375,0.8594 0,-1.6563 q -0.7969,0.9688 -1.4219,1.3126 -0.625,0.3437 -1.4062,0.3437 -2.0157,0 -3.1875,-1.7969 -0.9375,-1.4531 -0.9375,-3.5781 0,-1.7031 0.5859,-3.0391 0.5859,-1.3359 1.6016,-2.0234 1.0156,-0.6875 2.1718,-0.6875 0.7657,0 1.3438,0.2891 0.5781,0.289 1.25,1.0234 l 0,-3.1719 q 0,-1.2031 -0.1094,-1.4375 Q -34.542,6.5625 -34.8154,6.4062 -35.0889,6.25 -35.8232,6.25 l 0,-0.4844 4.6562,0 z m -3.1406,7.125 q -0.8281,-1.5937 -2.0313,-1.5937 -0.4218,0 -0.6875,0.2187 -0.4218,0.3594 -0.6875,1.2344 -0.2656,0.875 -0.2656,2.6719 0,2 0.2969,2.9531 0.2969,0.9531 0.7969,1.375 0.2656,0.2188 0.7031,0.2188 1,0 1.875,-1.5469 l 0,-5.5313 z m 16.9634,-6.25 0,6.2032 0.2968,0 q 1.4532,0 2.1094,-0.9063 0.6563,-0.9063 0.8281,-2.6875 l 0.4219,0 0,7.9688 -0.4219,0 q -0.1406,-1.2969 -0.5703,-2.125 -0.4297,-0.8282 -1,-1.1172 -0.5703,-0.2891 -1.664,-0.2891 l 0,4.2969 q 0,1.25 0.1093,1.5312 0.1094,0.2813 0.3985,0.461 0.289,0.1796 0.9453,0.1796 l 0.9062,0 q 2.1407,0 3.4219,-0.9843 1.2813,-0.9844 1.8438,-3.0157 l 0.4218,0 -0.6875,4.8438 -13.1718,0 0,-0.4219 0.5156,0 q 0.6562,0 1.0625,-0.2343 0.2969,-0.1563 0.4531,-0.5313 0.125,-0.2656 0.125,-1.4219 l 0,-10.0156 q 0,-1.0312 -0.0625,-1.2656 Q -21.1724,6.7188 -21.4692,6.5 -21.9067,6.1875 -22.6411,6.1875 l -0.5156,0 0,-0.4219 12.75,0 0,4.5156 -0.4219,0 q -0.3281,-1.6562 -0.9141,-2.375 -0.5859,-0.7187 -1.664,-1.0624 -0.6407,-0.2032 -2.3594,-0.2032 l -1.5781,0 z m 16.0595,7.9219 1.8282,3.4687 q 0.9375,1.7969 1.4843,2.2813 0.3125,0.2656 0.8282,0.2813 l 0,0.4062 -5.8438,0 0,-0.4062 q 0.6875,-0.0469 0.8516,-0.1719 0.164,-0.125 0.164,-0.3438 0,-0.3125 -0.3593,-0.9843 l -0.9219,-1.7032 -0.7656,1.125 q -0.5313,0.7813 -0.5938,0.9219 -0.0937,0.2187 -0.0937,0.3906 0,0.25 0.1093,0.4219 0.1094,0.1719 0.2891,0.2578 0.1797,0.086 0.6797,0.086 l 0,0.4062 -4.1094,0 0,-0.4062 q 0.7656,0 1.3984,-0.4219 0.6329,-0.4219 1.8516,-2.2031 l 0.8594,-1.2813 -1.8125,-3.3437 q -0.8906,-1.6407 -1.3281,-2.0157 -0.4375,-0.375 -0.9688,-0.4062 l 0,-0.4219 5.8125,0 0,0.4219 -0.2969,0 -0.5937,0.2031 q -0.0781,0.0781 -0.0781,0.2656 0,0.1719 0.0468,0.3438 0.0313,0.0781 0.3125,0.6094 l 0.8282,1.5312 0.4218,-0.6094 q 0.9063,-1.2344 0.9063,-1.7344 0,-0.2343 -0.2031,-0.3984 -0.2032,-0.164 -0.7032,-0.2109 l 0,-0.4219 3.7188,0 0,0.4219 q -0.6875,0.0156 -1.2813,0.414 -0.5937,0.3985 -1.3281,1.5391 l -1.1094,1.6875 z m 9.4532,-7.9063 0,3.8438 2.5,0 0,1.1094 -2.5,0 0,6.4844 q 0,0.9062 0.0859,1.1718 0.0859,0.2656 0.2969,0.4297 0.2109,0.1641 0.3984,0.1641 0.7344,0 1.375,-1.1094 l 0.3438,0.2344 q -0.9063,2.1562 -2.9532,2.1562 -1,0 -1.6953,-0.5547 Q 5.3247,20.0312 5.1372,19.3438 5.0278,18.9688 5.0278,17.2812 l 0,-5.6718 -1.375,0 0,-0.3906 q 1.4219,-1 2.4141,-2.1016 0.9922,-1.1016 1.7422,-2.461 l 0.3594,0 z m 12.3935,8.7188 -5.7656,0 q 0.1094,2.0938 1.1094,3.2969 0.7812,0.9375 1.875,0.9375 0.6718,0 1.2187,-0.375 0.5469,-0.375 1.1719,-1.3594 l 0.3906,0.25 q -0.8594,1.7344 -1.8906,2.4609 -1.0313,0.7266 -2.3906,0.7266 -2.3282,0 -3.5313,-1.7969 -0.9687,-1.4531 -0.9687,-3.5937 0,-2.625 1.4218,-4.1797 1.4219,-1.5547 3.3282,-1.5547 1.5937,0 2.7656,1.3047 1.1719,1.3047 1.2656,3.8828 z m -2.7656,-0.75 q 0,-1.8125 -0.1953,-2.4844 -0.1953,-0.6718 -0.6172,-1.0312 -0.2344,-0.1875 -0.625,-0.1875 -0.5781,0 -0.9531,0.5625 -0.6563,1 -0.6563,2.75 l 0,0.3906 3.0469,0 z m 8.3647,-4.125 0,1.3594 q 0.8125,-0.875 1.5547,-1.2735 0.7422,-0.3984 1.586,-0.3984 1.0312,0 1.7031,0.5625 0.6719,0.5625 0.8906,1.4062 0.1875,0.6407 0.1875,2.4688 l 0,4.0781 q 0,1.2188 0.2188,1.5157 0.2187,0.2968 0.9218,0.375 l 0,0.4062 -5.3125,0 0,-0.4062 q 0.5938,-0.0782 0.8438,-0.5 0.1875,-0.2657 0.1875,-1.3907 l 0,-4.6719 q 0,-1.2812 -0.1016,-1.6171 -0.1015,-0.336 -0.3437,-0.5235 -0.2422,-0.1875 -0.5391,-0.1875 -0.9687,0 -1.7969,1.375 l 0,5.625 q 0,1.1875 0.2188,1.5 0.2187,0.3125 0.8125,0.3907 l 0,0.4062 -5.3125,0 0,-0.4062 q 0.6719,-0.0626 0.9531,-0.4219 0.1875,-0.25 0.1875,-1.4688 l 0,-5.9219 q 0,-1.1874 -0.2187,-1.4843 Q 22.583,11 21.8799,10.9219 l 0,-0.4219 4.2812,0 z m 15.1353,-0.2969 0.1719,3.5938 -0.375,0 q -0.6875,-1.6094 -1.4219,-2.1875 -0.7344,-0.5782 -1.4688,-0.5782 -0.4531,0 -0.7812,0.3047 -0.3281,0.3047 -0.3281,0.711 0,0.3125 0.2187,0.5937 0.3594,0.4532 2.0156,1.5703 1.6563,1.1172 2.1719,1.8985 0.5156,0.7812 0.5156,1.75 0,0.875 -0.4375,1.7187 -0.4375,0.8438 -1.2343,1.2891 -0.7969,0.4453 -1.7657,0.4453 -0.75,0 -2,-0.4687 -0.3437,-0.125 -0.4687,-0.125 -0.3594,0 -0.6094,0.5624 l -0.375,0 -0.1719,-3.7812 0.375,0 q 0.5,1.4844 1.3828,2.2266 0.8829,0.7422 1.6797,0.7422 0.5313,0 0.875,-0.3282 0.3438,-0.3281 0.3438,-0.7968 0,-0.5469 -0.336,-0.9376 -0.3359,-0.3906 -1.5078,-1.1874 -1.7187,-1.1876 -2.2187,-1.8282 -0.75,-0.9218 -0.75,-2.0312 0,-1.2032 0.8359,-2.1875 0.836,-0.9844 2.4297,-0.9844 0.8438,0 1.6406,0.4063 0.3125,0.1718 0.5,0.1718 0.2032,0 0.3282,-0.0859 0.125,-0.0859 0.3906,-0.4766 l 0.375,0 z m 4.8413,-4.7969 q 0.7344,0 1.2422,0.5157 0.5078,0.5156 0.5078,1.2343 0,0.7188 -0.5156,1.2188 -0.5157,0.5 -1.2344,0.5 -0.7188,0 -1.2188,-0.5 -0.5,-0.5 -0.5,-1.2188 0,-0.7187 0.5,-1.2343 0.5,-0.5157 1.2188,-0.5157 z m 1.5781,5.0938 0,8.3281 q 0,1.1094 0.2578,1.4141 0.2578,0.3047 1.0078,0.3516 l 0,0.4062 -5.6718,0 0,-0.4062 q 0.7031,-0.0157 1.0312,-0.4063 0.2344,-0.25 0.2344,-1.3594 l 0,-6.1406 q 0,-1.1094 -0.2578,-1.4219 -0.2578,-0.3125 -1.0078,-0.3437 l 0,-0.4219 4.4062,0 z m 7.2495,-0.3125 q 1.3594,0 2.5391,0.7031 1.1797,0.7032 1.7969,2.0078 0.6172,1.3047 0.6172,2.8516 0,2.2344 -1.1407,3.75 -1.375,1.8125 -3.7812,1.8125 -2.375,0 -3.6563,-1.6641 -1.2812,-1.664 -1.2812,-3.8515 0,-2.25 1.3125,-3.9297 1.3125,-1.6797 3.5937,-1.6797 z m 0.0313,0.7969 q -0.5625,0 -0.9766,0.4297 -0.414,0.4297 -0.539,1.7031 -0.125,1.2734 -0.125,3.5547 0,1.1875 0.1562,2.2343 0.125,0.7969 0.5313,1.2188 0.4062,0.4219 0.9218,0.4219 0.5,0 0.8282,-0.2813 0.4531,-0.3906 0.5937,-1.0781 0.2188,-1.0625 0.2188,-4.3125 0,-1.9062 -0.211,-2.6172 -0.2109,-0.7109 -0.6328,-1.039 -0.2812,-0.2344 -0.7656,-0.2344 z M 65.7935,10.5 l 0,1.3594 q 0.8125,-0.875 1.5546,-1.2735 0.7422,-0.3984 1.586,-0.3984 1.0312,0 1.7031,0.5625 0.6719,0.5625 0.8906,1.4062 0.1875,0.6407 0.1875,2.4688 l 0,4.0781 q 0,1.2188 0.2188,1.5157 0.2187,0.2968 0.9219,0.375 l 0,0.4062 -5.3125,0 0,-0.4062 q 0.5937,-0.0782 0.8437,-0.5 0.1875,-0.2657 0.1875,-1.3907 l 0,-4.6719 q 0,-1.2812 -0.1016,-1.6171 -0.1015,-0.336 -0.3437,-0.5235 -0.2422,-0.1875 -0.5391,-0.1875 -0.9687,0 -1.7968,1.375 l 0,5.625 q 0,1.1875 0.2187,1.5 0.2188,0.3125 0.8125,0.3907 l 0,0.4062 -5.3125,0 0,-0.4062 q 0.6719,-0.0626 0.9531,-0.4219 0.1875,-0.25 0.1875,-1.4688 l 0,-5.9219 q 0,-1.1874 -0.2187,-1.4843 Q 62.2153,11 61.5122,10.9219 l 0,-0.4219 4.2813,0 z m 20.8696,-5.0781 0,0.5156 q -1.1719,0.7656 -1.7188,1.5 -0.7656,1 -1.1875,2.5937 Q 83.21,12 83.21,15.5156 q 0,3.3282 0.4921,5.1719 0.4922,1.8437 1.336,2.9687 0.5781,0.7969 1.625,1.3907 l 0,0.5625 q -2.7031,-0.9219 -4.586,-3.7188 -1.8828,-2.7968 -1.8828,-6.4375 0,-3.5937 1.875,-6.3593 1.875,-2.7657 4.5938,-3.6719 z m 5.3935,5.0781 0,1.375 q 0.875,-0.9375 1.6094,-1.3125 0.7344,-0.375 1.6094,-0.375 1.0156,0 1.6953,0.4687 0.6797,0.4688 1.0547,1.4376 0.9062,-1.0157 1.7266,-1.461 0.8203,-0.4453 1.7265,-0.4453 1.0938,0 1.7344,0.5 0.6406,0.5 0.8984,1.2656 0.2578,0.7657 0.2578,2.4531 l 0,4.2969 q 0,1.2188 0.2188,1.5078 0.2187,0.2891 0.9062,0.3829 l 0,0.4062 -5.4218,0 0,-0.4062 q 0.6406,-0.0469 0.9375,-0.5 0.2031,-0.2969 0.2031,-1.3907 l 0,-4.5156 q 0,-1.3906 -0.1094,-1.7734 -0.1094,-0.3829 -0.3515,-0.5703 -0.2422,-0.1876 -0.5704,-0.1876 -0.4843,0 -0.9765,0.3516 -0.4922,0.3516 -0.9922,1.0703 l 0,5.625 q 0,1.1407 0.1875,1.4375 0.25,0.4063 0.9844,0.4532 l 0,0.4062 -5.4375,0 0,-0.4062 q 0.4375,-0.0157 0.6953,-0.211 0.2578,-0.1953 0.3359,-0.4766 0.0781,-0.2812 0.0781,-1.2031 l 0,-4.5156 q 0,-1.4219 -0.1093,-1.7813 -0.1094,-0.3593 -0.375,-0.5624 -0.2657,-0.2032 -0.5625,-0.2032 -0.4532,0 -0.8282,0.2344 -0.5156,0.3594 -1.125,1.2031 l 0,5.625 q 0,1.125 0.2266,1.4766 0.2266,0.3515 0.9141,0.4141 l 0,0.4062 -5.4063,0 0,-0.4062 q 0.6563,-0.0626 0.9375,-0.4219 0.1875,-0.25 0.1875,-1.4688 l 0,-5.9219 q 0,-1.1874 -0.2187,-1.4843 Q 88.4785,11 87.791,10.9219 l 0,-0.4219 4.2656,0 z m 19.1592,0 0,1.375 q 0.875,-0.9375 1.6094,-1.3125 0.7344,-0.375 1.6094,-0.375 1.0156,0 1.6953,0.4687 0.6797,0.4688 1.0547,1.4376 0.9062,-1.0157 1.7265,-1.461 0.8203,-0.4453 1.7266,-0.4453 1.0937,0 1.7344,0.5 0.6406,0.5 0.8984,1.2656 0.2578,0.7657 0.2578,2.4531 l 0,4.2969 q 0,1.2188 0.2188,1.5078 0.2187,0.2891 0.9062,0.3829 l 0,0.4062 -5.4219,0 0,-0.4062 q 0.6407,-0.0469 0.9375,-0.5 0.2032,-0.2969 0.2032,-1.3907 l 0,-4.5156 q 0,-1.3906 -0.1094,-1.7734 -0.1094,-0.3829 -0.3516,-0.5703 -0.2422,-0.1876 -0.5703,-0.1876 -0.4844,0 -0.9765,0.3516 -0.4922,0.3516 -0.9922,1.0703 l 0,5.625 q 0,1.1407 0.1875,1.4375 0.25,0.4063 0.9843,0.4532 l 0,0.4062 -5.4375,0 0,-0.4062 q 0.4375,-0.0157 0.6954,-0.211 0.2578,-0.1953 0.3359,-0.4766 0.0781,-0.2812 0.0781,-1.2031 l 0,-4.5156 q 0,-1.4219 -0.1094,-1.7813 -0.1093,-0.3593 -0.375,-0.5624 -0.2656,-0.2032 -0.5625,-0.2032 -0.4531,0 -0.8281,0.2344 -0.5156,0.3594 -1.125,1.2031 l 0,5.625 q 0,1.125 0.2266,1.4766 0.2265,0.3515 0.914,0.4141 l 0,0.4062 -5.4062,0 0,-0.4062 q 0.6562,-0.0626 0.9375,-0.4219 0.1875,-0.25 0.1875,-1.4688 l 0,-5.9219 q 0,-1.1874 -0.2188,-1.4843 -0.2187,-0.2969 -0.9062,-0.375 l 0,-0.4219 4.2656,0 z m 14.3154,15.1094 0,-0.5156 q 1.1719,-0.7813 1.7188,-1.5157 0.75,-1 1.1875,-2.5781 0.5469,-1.9844 0.5469,-5.5 0,-3.3281 -0.4922,-5.1641 Q 128,8.5 127.1562,7.3594 q -0.5781,-0.7813 -1.625,-1.375 l 0,-0.5625 q 2.7032,0.9062 4.586,3.7109 1.8828,2.8047 1.8828,6.4453 0,3.5781 -1.8828,6.3438 -1.8828,2.7656 -4.586,3.6875 z"
         id="path3407"
         inkscape:connector-curvature="0" />
    </g>
    <g
       style="fill:rgb(38,38,38); text-rendering:geometricPrecision; color-rendering:optimizeQuality; image-rendering:optimizeQuality; stroke-linejoin:round; color-interpolation:linearRGB; stroke:rgb(38,38,38); stroke-width:0.6667;"
       id="g3409">
      <line
         y2="48"
         style="fill:none;"
         x1="100"
         x2="100"
         y1="565"
         id="line3411" />
      <line
         y2="48"
         style="fill:none;"
         x1="693"
         x2="693"
         y1="565"
         id="line3413" />
      <line
         y2="542.9537"
         style="fill:none;"
         x1="100"
         x2="105.93"
         y1="542.9537"
         id="line3415" />
      <line
         y2="461.4967"
         style="fill:none;"
         x1="100"
         x2="105.93"
         y1="461.4967"
         id="line3417" />
      <line
         y2="380.0396"
         style="fill:none;"
         x1="100"
         x2="105.93"
         y1="380.0396"
         id="line3419" />
      <line
         y2="298.5826"
         style="fill:none;"
         x1="100"
         x2="105.93"
         y1="298.5826"
         id="line3421" />
      <line
         y2="217.1256"
         style="fill:none;"
         x1="100"
         x2="105.93"
         y1="217.1256"
         id="line3423" />
      <line
         y2="135.6686"
         style="fill:none;"
         x1="100"
         x2="105.93"
         y1="135.6686"
         id="line3425" />
      <line
         y2="54.2116"
         style="fill:none;"
         x1="100"
         x2="105.93"
         y1="54.2116"
         id="line3427" />
      <line
         y2="542.9537"
         style="fill:none;"
         x1="693"
         x2="687.07"
         y1="542.9537"
         id="line3429" />
      <line
         y2="461.4967"
         style="fill:none;"
         x1="693"
         x2="687.07"
         y1="461.4967"
         id="line3431" />
      <line
         y2="380.0396"
         style="fill:none;"
         x1="693"
         x2="687.07"
         y1="380.0396"
         id="line3433" />
      <line
         y2="298.5826"
         style="fill:none;"
         x1="693"
         x2="687.07"
         y1="298.5826"
         id="line3435" />
      <line
         y2="217.1256"
         style="fill:none;"
         x1="693"
         x2="687.07"
         y1="217.1256"
         id="line3437" />
      <line
         y2="135.6686"
         style="fill:none;"
         x1="693"
         x2="687.07"
         y1="135.6686"
         id="line3439" />
      <line
         y2="54.2116"
         style="fill:none;"
         x1="693"
         x2="687.07"
         y1="54.2116"
         id="line3441" />
    </g>
    <g
       transform="translate(93.0667,542.9537)"
       style="font-size:21px; fill:rgb(38,38,38); text-rendering:geometricPrecision; color-rendering:optimizeQuality; image-rendering:optimizeQuality; font-family:'Times New Roman'; color-interpolation:linearRGB; stroke:rgb(38,38,38); font-weight:bold;"
       id="g3443">
      <path
         style="stroke:none;"
         d="M-1.2656 0.5469 Q-1.2656 2.625 -1.8594 4.4375 Q-2.2031 5.5469 -2.7891 6.25 Q-3.375 6.9531 -4.125 7.3672 Q-4.875 7.7812 -5.7656 7.7812 Q-6.7656 7.7812 -7.5781 7.2734 Q-8.3906 6.7656 -9.0156 5.8125 Q-9.4688 5.1094 -9.7969 3.9531 Q-10.2344 2.3906 -10.2344 0.7188 Q-10.2344 -1.5469 -9.6094 -3.4531 Q-9.0781 -5.0156 -8.0156 -5.8516 Q-6.9531 -6.6875 -5.7656 -6.6875 Q-4.5469 -6.6875 -3.5 -5.8672 Q-2.4531 -5.0469 -1.9531 -3.6406 Q-1.2656 -1.7344 -1.2656 0.5469 ZM-4.4219 0.5312 Q-4.4219 -3.125 -4.4688 -3.7344 Q-4.5781 -5.1562 -4.9531 -5.6562 Q-5.2188 -5.9844 -5.7969 -5.9844 Q-6.2344 -5.9844 -6.4844 -5.7344 Q-6.875 -5.375 -7.0078 -4.4688 Q-7.1406 -3.5625 -7.1406 1.8594 Q-7.1406 4.8125 -6.9219 5.8125 Q-6.7812 6.5469 -6.4922 6.7891 Q-6.2031 7.0312 -5.7344 7.0312 Q-5.2188 7.0312 -4.9531 6.7031 Q-4.5312 6.1406 -4.4688 4.9375 L-4.4219 0.5312 Z"
         id="path3445" />
    </g>
    <g
       transform="translate(93.0667,461.4967)"
       style="font-size:21px; fill:rgb(38,38,38); text-rendering:geometricPrecision; color-rendering:optimizeQuality; image-rendering:optimizeQuality; font-family:'Times New Roman'; color-interpolation:linearRGB; stroke:rgb(38,38,38); font-weight:bold;"
       id="g3447">
      <path
         style="stroke:none;"
         d="M-25.1562 -6.6875 L-25.1562 4.6875 Q-25.1562 5.9688 -25.0469 6.3203 Q-24.9375 6.6719 -24.5781 6.8984 Q-24.2188 7.125 -23.4219 7.125 L-23.1094 7.125 L-23.1094 7.5 L-30.4375 7.5 L-30.4375 7.125 L-30.0625 7.125 Q-29.1719 7.125 -28.7891 6.9141 Q-28.4062 6.7031 -28.2734 6.3516 Q-28.1406 6 -28.1406 4.6875 L-28.1406 -2.5312 Q-28.1406 -3.5 -28.2344 -3.7344 Q-28.3281 -3.9688 -28.5781 -4.1406 Q-28.8281 -4.3125 -29.1562 -4.3125 Q-29.6875 -4.3125 -30.4375 -3.9844 L-30.6094 -4.3594 L-25.5 -6.6875 L-25.1562 -6.6875 ZM-11.7656 0.5469 Q-11.7656 2.625 -12.3594 4.4375 Q-12.7031 5.5469 -13.2891 6.25 Q-13.875 6.9531 -14.625 7.3672 Q-15.375 7.7812 -16.2656 7.7812 Q-17.2656 7.7812 -18.0781 7.2734 Q-18.8906 6.7656 -19.5156 5.8125 Q-19.9688 5.1094 -20.2969 3.9531 Q-20.7344 2.3906 -20.7344 0.7188 Q-20.7344 -1.5469 -20.1094 -3.4531 Q-19.5781 -5.0156 -18.5156 -5.8516 Q-17.4531 -6.6875 -16.2656 -6.6875 Q-15.0469 -6.6875 -14 -5.8672 Q-12.9531 -5.0469 -12.4531 -3.6406 Q-11.7656 -1.7344 -11.7656 0.5469 ZM-14.9219 0.5312 Q-14.9219 -3.125 -14.9688 -3.7344 Q-15.0781 -5.1562 -15.4531 -5.6562 Q-15.7188 -5.9844 -16.2969 -5.9844 Q-16.7344 -5.9844 -16.9844 -5.7344 Q-17.375 -5.375 -17.5078 -4.4688 Q-17.6406 -3.5625 -17.6406 1.8594 Q-17.6406 4.8125 -17.4219 5.8125 Q-17.2812 6.5469 -16.9922 6.7891 Q-16.7031 7.0312 -16.2344 7.0312 Q-15.7188 7.0312 -15.4531 6.7031 Q-15.0312 6.1406 -14.9688 4.9375 L-14.9219 0.5312 ZM-1.2656 0.5469 Q-1.2656 2.625 -1.8594 4.4375 Q-2.2031 5.5469 -2.7891 6.25 Q-3.375 6.9531 -4.125 7.3672 Q-4.875 7.7812 -5.7656 7.7812 Q-6.7656 7.7812 -7.5781 7.2734 Q-8.3906 6.7656 -9.0156 5.8125 Q-9.4688 5.1094 -9.7969 3.9531 Q-10.2344 2.3906 -10.2344 0.7188 Q-10.2344 -1.5469 -9.6094 -3.4531 Q-9.0781 -5.0156 -8.0156 -5.8516 Q-6.9531 -6.6875 -5.7656 -6.6875 Q-4.5469 -6.6875 -3.5 -5.8672 Q-2.4531 -5.0469 -1.9531 -3.6406 Q-1.2656 -1.7344 -1.2656 0.5469 ZM-4.4219 0.5312 Q-4.4219 -3.125 -4.4688 -3.7344 Q-4.5781 -5.1562 -4.9531 -5.6562 Q-5.2188 -5.9844 -5.7969 -5.9844 Q-6.2344 -5.9844 -6.4844 -5.7344 Q-6.875 -5.375 -7.0078 -4.4688 Q-7.1406 -3.5625 -7.1406 1.8594 Q-7.1406 4.8125 -6.9219 5.8125 Q-6.7812 6.5469 -6.4922 6.7891 Q-6.2031 7.0312 -5.7344 7.0312 Q-5.2188 7.0312 -4.9531 6.7031 Q-4.5312 6.1406 -4.4688 4.9375 L-4.4219 0.5312 Z"
         id="path3449" />
    </g>
    <g
       transform="translate(93.0667,380.0396)"
       style="font-size:21px; fill:rgb(38,38,38); text-rendering:geometricPrecision; color-rendering:optimizeQuality; image-rendering:optimizeQuality; font-family:'Times New Roman'; color-interpolation:linearRGB; stroke:rgb(38,38,38); font-weight:bold;"
       id="g3451">
      <path
         style="stroke:none;"
         d="M-23.2969 7.5 L-31.4844 7.5 L-31.4844 7.2812 Q-27.7188 2.7969 -26.9141 1.25 Q-26.1094 -0.2969 -26.1094 -1.7812 Q-26.1094 -2.8594 -26.7812 -3.5703 Q-27.4531 -4.2812 -28.4062 -4.2812 Q-29.9844 -4.2812 -30.8594 -2.7031 L-31.2344 -2.8438 Q-30.6875 -4.8125 -29.5625 -5.75 Q-28.4375 -6.6875 -26.9531 -6.6875 Q-25.9062 -6.6875 -25.0312 -6.1953 Q-24.1562 -5.7031 -23.6641 -4.8516 Q-23.1719 -4 -23.1719 -3.25 Q-23.1719 -1.875 -23.9375 -0.4844 Q-24.9688 1.4219 -28.4531 4.8125 L-25.4531 4.8125 Q-24.3438 4.8125 -24.0078 4.7188 Q-23.6719 4.625 -23.4609 4.4062 Q-23.25 4.1875 -22.8906 3.4844 L-22.5312 3.4844 L-23.2969 7.5 ZM-11.7656 0.5469 Q-11.7656 2.625 -12.3594 4.4375 Q-12.7031 5.5469 -13.2891 6.25 Q-13.875 6.9531 -14.625 7.3672 Q-15.375 7.7812 -16.2656 7.7812 Q-17.2656 7.7812 -18.0781 7.2734 Q-18.8906 6.7656 -19.5156 5.8125 Q-19.9688 5.1094 -20.2969 3.9531 Q-20.7344 2.3906 -20.7344 0.7188 Q-20.7344 -1.5469 -20.1094 -3.4531 Q-19.5781 -5.0156 -18.5156 -5.8516 Q-17.4531 -6.6875 -16.2656 -6.6875 Q-15.0469 -6.6875 -14 -5.8672 Q-12.9531 -5.0469 -12.4531 -3.6406 Q-11.7656 -1.7344 -11.7656 0.5469 ZM-14.9219 0.5312 Q-14.9219 -3.125 -14.9688 -3.7344 Q-15.0781 -5.1562 -15.4531 -5.6562 Q-15.7188 -5.9844 -16.2969 -5.9844 Q-16.7344 -5.9844 -16.9844 -5.7344 Q-17.375 -5.375 -17.5078 -4.4688 Q-17.6406 -3.5625 -17.6406 1.8594 Q-17.6406 4.8125 -17.4219 5.8125 Q-17.2812 6.5469 -16.9922 6.7891 Q-16.7031 7.0312 -16.2344 7.0312 Q-15.7188 7.0312 -15.4531 6.7031 Q-15.0312 6.1406 -14.9688 4.9375 L-14.9219 0.5312 ZM-1.2656 0.5469 Q-1.2656 2.625 -1.8594 4.4375 Q-2.2031 5.5469 -2.7891 6.25 Q-3.375 6.9531 -4.125 7.3672 Q-4.875 7.7812 -5.7656 7.7812 Q-6.7656 7.7812 -7.5781 7.2734 Q-8.3906 6.7656 -9.0156 5.8125 Q-9.4688 5.1094 -9.7969 3.9531 Q-10.2344 2.3906 -10.2344 0.7188 Q-10.2344 -1.5469 -9.6094 -3.4531 Q-9.0781 -5.0156 -8.0156 -5.8516 Q-6.9531 -6.6875 -5.7656 -6.6875 Q-4.5469 -6.6875 -3.5 -5.8672 Q-2.4531 -5.0469 -1.9531 -3.6406 Q-1.2656 -1.7344 -1.2656 0.5469 ZM-4.4219 0.5312 Q-4.4219 -3.125 -4.4688 -3.7344 Q-4.5781 -5.1562 -4.9531 -5.6562 Q-5.2188 -5.9844 -5.7969 -5.9844 Q-6.2344 -5.9844 -6.4844 -5.7344 Q-6.875 -5.375 -7.0078 -4.4688 Q-7.1406 -3.5625 -7.1406 1.8594 Q-7.1406 4.8125 -6.9219 5.8125 Q-6.7812 6.5469 -6.4922 6.7891 Q-6.2031 7.0312 -5.7344 7.0312 Q-5.2188 7.0312 -4.9531 6.7031 Q-4.5312 6.1406 -4.4688 4.9375 L-4.4219 0.5312 Z"
         id="path3453" />
    </g>
    <g
       transform="translate(93.0667,298.5826)"
       style="font-size:21px; fill:rgb(38,38,38); text-rendering:geometricPrecision; color-rendering:optimizeQuality; image-rendering:optimizeQuality; font-family:'Times New Roman'; color-interpolation:linearRGB; stroke:rgb(38,38,38); font-weight:bold;"
       id="g3455">
      <path
         style="stroke:none;"
         d="M-28.8906 0.5312 L-28.8906 0.1719 Q-27.7188 -0.1719 -27.2734 -0.4609 Q-26.8281 -0.75 -26.5 -1.3516 Q-26.1719 -1.9531 -26.1719 -2.5625 Q-26.1719 -3.4219 -26.7891 -4.0312 Q-27.4062 -4.6406 -28.3281 -4.6406 Q-29.7656 -4.6406 -30.7656 -3.125 L-31.1562 -3.25 Q-30.4062 -4.9688 -29.2578 -5.8281 Q-28.1094 -6.6875 -26.6875 -6.6875 Q-25.25 -6.6875 -24.3047 -5.8047 Q-23.3594 -4.9219 -23.3594 -3.75 Q-23.3594 -2.9844 -23.7969 -2.2656 Q-24.2344 -1.5469 -25.1719 -1.0156 Q-23.9688 -0.4219 -23.3359 0.4297 Q-22.7031 1.2812 -22.7031 2.5781 Q-22.7031 4.75 -24.2812 6.2734 Q-25.8594 7.7969 -28.5 7.7969 Q-30.2656 7.7969 -31.0781 7.2188 Q-31.6562 6.7969 -31.6562 6.1562 Q-31.6562 5.6875 -31.3203 5.3516 Q-30.9844 5.0156 -30.5469 5.0156 Q-30.2031 5.0156 -29.9062 5.1562 Q-29.75 5.25 -28.75 6.0625 Q-27.75 6.875 -26.875 6.875 Q-26.1094 6.875 -25.5703 6.2734 Q-25.0312 5.6719 -25.0312 4.75 Q-25.0312 3.3438 -26.0156 2.1641 Q-27 0.9844 -28.8906 0.5312 ZM-11.7656 0.5469 Q-11.7656 2.625 -12.3594 4.4375 Q-12.7031 5.5469 -13.2891 6.25 Q-13.875 6.9531 -14.625 7.3672 Q-15.375 7.7812 -16.2656 7.7812 Q-17.2656 7.7812 -18.0781 7.2734 Q-18.8906 6.7656 -19.5156 5.8125 Q-19.9688 5.1094 -20.2969 3.9531 Q-20.7344 2.3906 -20.7344 0.7188 Q-20.7344 -1.5469 -20.1094 -3.4531 Q-19.5781 -5.0156 -18.5156 -5.8516 Q-17.4531 -6.6875 -16.2656 -6.6875 Q-15.0469 -6.6875 -14 -5.8672 Q-12.9531 -5.0469 -12.4531 -3.6406 Q-11.7656 -1.7344 -11.7656 0.5469 ZM-14.9219 0.5312 Q-14.9219 -3.125 -14.9688 -3.7344 Q-15.0781 -5.1562 -15.4531 -5.6562 Q-15.7188 -5.9844 -16.2969 -5.9844 Q-16.7344 -5.9844 -16.9844 -5.7344 Q-17.375 -5.375 -17.5078 -4.4688 Q-17.6406 -3.5625 -17.6406 1.8594 Q-17.6406 4.8125 -17.4219 5.8125 Q-17.2812 6.5469 -16.9922 6.7891 Q-16.7031 7.0312 -16.2344 7.0312 Q-15.7188 7.0312 -15.4531 6.7031 Q-15.0312 6.1406 -14.9688 4.9375 L-14.9219 0.5312 ZM-1.2656 0.5469 Q-1.2656 2.625 -1.8594 4.4375 Q-2.2031 5.5469 -2.7891 6.25 Q-3.375 6.9531 -4.125 7.3672 Q-4.875 7.7812 -5.7656 7.7812 Q-6.7656 7.7812 -7.5781 7.2734 Q-8.3906 6.7656 -9.0156 5.8125 Q-9.4688 5.1094 -9.7969 3.9531 Q-10.2344 2.3906 -10.2344 0.7188 Q-10.2344 -1.5469 -9.6094 -3.4531 Q-9.0781 -5.0156 -8.0156 -5.8516 Q-6.9531 -6.6875 -5.7656 -6.6875 Q-4.5469 -6.6875 -3.5 -5.8672 Q-2.4531 -5.0469 -1.9531 -3.6406 Q-1.2656 -1.7344 -1.2656 0.5469 ZM-4.4219 0.5312 Q-4.4219 -3.125 -4.4688 -3.7344 Q-4.5781 -5.1562 -4.9531 -5.6562 Q-5.2188 -5.9844 -5.7969 -5.9844 Q-6.2344 -5.9844 -6.4844 -5.7344 Q-6.875 -5.375 -7.0078 -4.4688 Q-7.1406 -3.5625 -7.1406 1.8594 Q-7.1406 4.8125 -6.9219 5.8125 Q-6.7812 6.5469 -6.4922 6.7891 Q-6.2031 7.0312 -5.7344 7.0312 Q-5.2188 7.0312 -4.9531 6.7031 Q-4.5312 6.1406 -4.4688 4.9375 L-4.4219 0.5312 Z"
         id="path3457" />
    </g>
    <g
       transform="translate(93.0667,217.1256)"
       style="font-size:21px; fill:rgb(38,38,38); text-rendering:geometricPrecision; color-rendering:optimizeQuality; image-rendering:optimizeQuality; font-family:'Times New Roman'; color-interpolation:linearRGB; stroke:rgb(38,38,38); font-weight:bold;"
       id="g3459">
      <path
         style="stroke:none;"
         d="M-31.4844 2.2656 L-24.875 -6.6875 L-23.625 -6.6875 L-23.625 2.2656 L-22.3438 2.2656 L-22.3438 4.375 L-23.625 4.375 L-23.625 7.5 L-26.4375 7.5 L-26.4375 4.375 L-31.4844 4.375 L-31.4844 2.2656 ZM-30.4844 2.2656 L-26.4375 2.2656 L-26.4375 -3.2188 L-30.4844 2.2656 ZM-11.7656 0.5469 Q-11.7656 2.625 -12.3594 4.4375 Q-12.7031 5.5469 -13.2891 6.25 Q-13.875 6.9531 -14.625 7.3672 Q-15.375 7.7812 -16.2656 7.7812 Q-17.2656 7.7812 -18.0781 7.2734 Q-18.8906 6.7656 -19.5156 5.8125 Q-19.9688 5.1094 -20.2969 3.9531 Q-20.7344 2.3906 -20.7344 0.7188 Q-20.7344 -1.5469 -20.1094 -3.4531 Q-19.5781 -5.0156 -18.5156 -5.8516 Q-17.4531 -6.6875 -16.2656 -6.6875 Q-15.0469 -6.6875 -14 -5.8672 Q-12.9531 -5.0469 -12.4531 -3.6406 Q-11.7656 -1.7344 -11.7656 0.5469 ZM-14.9219 0.5312 Q-14.9219 -3.125 -14.9688 -3.7344 Q-15.0781 -5.1562 -15.4531 -5.6562 Q-15.7188 -5.9844 -16.2969 -5.9844 Q-16.7344 -5.9844 -16.9844 -5.7344 Q-17.375 -5.375 -17.5078 -4.4688 Q-17.6406 -3.5625 -17.6406 1.8594 Q-17.6406 4.8125 -17.4219 5.8125 Q-17.2812 6.5469 -16.9922 6.7891 Q-16.7031 7.0312 -16.2344 7.0312 Q-15.7188 7.0312 -15.4531 6.7031 Q-15.0312 6.1406 -14.9688 4.9375 L-14.9219 0.5312 ZM-1.2656 0.5469 Q-1.2656 2.625 -1.8594 4.4375 Q-2.2031 5.5469 -2.7891 6.25 Q-3.375 6.9531 -4.125 7.3672 Q-4.875 7.7812 -5.7656 7.7812 Q-6.7656 7.7812 -7.5781 7.2734 Q-8.3906 6.7656 -9.0156 5.8125 Q-9.4688 5.1094 -9.7969 3.9531 Q-10.2344 2.3906 -10.2344 0.7188 Q-10.2344 -1.5469 -9.6094 -3.4531 Q-9.0781 -5.0156 -8.0156 -5.8516 Q-6.9531 -6.6875 -5.7656 -6.6875 Q-4.5469 -6.6875 -3.5 -5.8672 Q-2.4531 -5.0469 -1.9531 -3.6406 Q-1.2656 -1.7344 -1.2656 0.5469 ZM-4.4219 0.5312 Q-4.4219 -3.125 -4.4688 -3.7344 Q-4.5781 -5.1562 -4.9531 -5.6562 Q-5.2188 -5.9844 -5.7969 -5.9844 Q-6.2344 -5.9844 -6.4844 -5.7344 Q-6.875 -5.375 -7.0078 -4.4688 Q-7.1406 -3.5625 -7.1406 1.8594 Q-7.1406 4.8125 -6.9219 5.8125 Q-6.7812 6.5469 -6.4922 6.7891 Q-6.2031 7.0312 -5.7344 7.0312 Q-5.2188 7.0312 -4.9531 6.7031 Q-4.5312 6.1406 -4.4688 4.9375 L-4.4219 0.5312 Z"
         id="path3461" />
    </g>
    <g
       transform="translate(93.0667,135.6686)"
       style="font-size:21px; fill:rgb(38,38,38); text-rendering:geometricPrecision; color-rendering:optimizeQuality; image-rendering:optimizeQuality; font-family:'Times New Roman'; color-interpolation:linearRGB; stroke:rgb(38,38,38); font-weight:bold;"
       id="g3463">
      <path
         style="stroke:none;"
         d="M-28.7969 -6.4062 L-22.2969 -6.4062 L-23.3281 -3.7656 L-28.7969 -3.7656 L-29.3281 -2.375 Q-25.7812 -2.2344 -23.875 -0.6094 Q-22.3125 0.7344 -22.3125 2.7344 Q-22.3125 4.0156 -23.0391 5.2422 Q-23.7656 6.4688 -25.0859 7.125 Q-26.4062 7.7812 -27.9844 7.7812 Q-29.6875 7.7812 -30.6094 7.1562 Q-31.2344 6.7031 -31.2344 6.125 Q-31.2344 5.6875 -30.9062 5.3516 Q-30.5781 5.0156 -30.1406 5.0156 Q-29.7344 5.0156 -29.3203 5.1797 Q-28.9062 5.3438 -27.9219 6.0312 Q-27.2969 6.4688 -26.8438 6.625 Q-26.5312 6.75 -26.125 6.75 Q-25.2812 6.75 -24.6953 6.1328 Q-24.1094 5.5156 -24.1094 4.6562 Q-24.1094 2.8594 -25.9141 1.7266 Q-27.7188 0.5938 -30.4688 0.5938 Q-30.7344 0.5938 -31.2969 0.6094 L-28.7969 -6.4062 ZM-11.7656 0.5469 Q-11.7656 2.625 -12.3594 4.4375 Q-12.7031 5.5469 -13.2891 6.25 Q-13.875 6.9531 -14.625 7.3672 Q-15.375 7.7812 -16.2656 7.7812 Q-17.2656 7.7812 -18.0781 7.2734 Q-18.8906 6.7656 -19.5156 5.8125 Q-19.9688 5.1094 -20.2969 3.9531 Q-20.7344 2.3906 -20.7344 0.7188 Q-20.7344 -1.5469 -20.1094 -3.4531 Q-19.5781 -5.0156 -18.5156 -5.8516 Q-17.4531 -6.6875 -16.2656 -6.6875 Q-15.0469 -6.6875 -14 -5.8672 Q-12.9531 -5.0469 -12.4531 -3.6406 Q-11.7656 -1.7344 -11.7656 0.5469 ZM-14.9219 0.5312 Q-14.9219 -3.125 -14.9688 -3.7344 Q-15.0781 -5.1562 -15.4531 -5.6562 Q-15.7188 -5.9844 -16.2969 -5.9844 Q-16.7344 -5.9844 -16.9844 -5.7344 Q-17.375 -5.375 -17.5078 -4.4688 Q-17.6406 -3.5625 -17.6406 1.8594 Q-17.6406 4.8125 -17.4219 5.8125 Q-17.2812 6.5469 -16.9922 6.7891 Q-16.7031 7.0312 -16.2344 7.0312 Q-15.7188 7.0312 -15.4531 6.7031 Q-15.0312 6.1406 -14.9688 4.9375 L-14.9219 0.5312 ZM-1.2656 0.5469 Q-1.2656 2.625 -1.8594 4.4375 Q-2.2031 5.5469 -2.7891 6.25 Q-3.375 6.9531 -4.125 7.3672 Q-4.875 7.7812 -5.7656 7.7812 Q-6.7656 7.7812 -7.5781 7.2734 Q-8.3906 6.7656 -9.0156 5.8125 Q-9.4688 5.1094 -9.7969 3.9531 Q-10.2344 2.3906 -10.2344 0.7188 Q-10.2344 -1.5469 -9.6094 -3.4531 Q-9.0781 -5.0156 -8.0156 -5.8516 Q-6.9531 -6.6875 -5.7656 -6.6875 Q-4.5469 -6.6875 -3.5 -5.8672 Q-2.4531 -5.0469 -1.9531 -3.6406 Q-1.2656 -1.7344 -1.2656 0.5469 ZM-4.4219 0.5312 Q-4.4219 -3.125 -4.4688 -3.7344 Q-4.5781 -5.1562 -4.9531 -5.6562 Q-5.2188 -5.9844 -5.7969 -5.9844 Q-6.2344 -5.9844 -6.4844 -5.7344 Q-6.875 -5.375 -7.0078 -4.4688 Q-7.1406 -3.5625 -7.1406 1.8594 Q-7.1406 4.8125 -6.9219 5.8125 Q-6.7812 6.5469 -6.4922 6.7891 Q-6.2031 7.0312 -5.7344 7.0312 Q-5.2188 7.0312 -4.9531 6.7031 Q-4.5312 6.1406 -4.4688 4.9375 L-4.4219 0.5312 Z"
         id="path3465" />
    </g>
    <g
       transform="translate(93.0667,54.2116)"
       style="font-size:21px; fill:rgb(38,38,38); text-rendering:geometricPrecision; color-rendering:optimizeQuality; image-rendering:optimizeQuality; font-family:'Times New Roman'; color-interpolation:linearRGB; stroke:rgb(38,38,38); font-weight:bold;"
       id="g3467">
      <path
         style="stroke:none;"
         d="M-22.1406 -6.6875 L-22.1406 -6.4062 Q-23.9844 -5.9375 -25.1094 -5.1953 Q-26.2344 -4.4531 -26.8906 -3.3906 Q-27.5469 -2.3281 -27.8906 -0.75 Q-27.4531 -1.0625 -27.1562 -1.1562 Q-26.4844 -1.3594 -25.8125 -1.3594 Q-24.25 -1.3594 -23.2109 -0.2266 Q-22.1719 0.9062 -22.1719 2.8594 Q-22.1719 4.2344 -22.7344 5.3828 Q-23.2969 6.5312 -24.3281 7.1562 Q-25.3594 7.7812 -26.5469 7.7812 Q-27.8281 7.7812 -28.9141 7.0781 Q-30 6.375 -30.6094 5.0234 Q-31.2188 3.6719 -31.2188 2.0781 Q-31.2188 -0.25 -30.0938 -2.2656 Q-28.9688 -4.2812 -26.9062 -5.4766 Q-24.8438 -6.6719 -22.1406 -6.6875 ZM-28.0312 0.0781 Q-28.1094 1.4844 -28.1094 2.1406 Q-28.1094 3.5625 -27.8359 4.8828 Q-27.5625 6.2031 -27.0938 6.7344 Q-26.7656 7.125 -26.2969 7.125 Q-25.8281 7.125 -25.4609 6.5703 Q-25.0938 6.0156 -25.0938 4.3438 Q-25.0938 1.5156 -25.7812 0.4375 Q-26.2188 -0.2656 -26.9688 -0.2656 Q-27.375 -0.2656 -28.0312 0.0781 ZM-11.7656 0.5469 Q-11.7656 2.625 -12.3594 4.4375 Q-12.7031 5.5469 -13.2891 6.25 Q-13.875 6.9531 -14.625 7.3672 Q-15.375 7.7812 -16.2656 7.7812 Q-17.2656 7.7812 -18.0781 7.2734 Q-18.8906 6.7656 -19.5156 5.8125 Q-19.9688 5.1094 -20.2969 3.9531 Q-20.7344 2.3906 -20.7344 0.7188 Q-20.7344 -1.5469 -20.1094 -3.4531 Q-19.5781 -5.0156 -18.5156 -5.8516 Q-17.4531 -6.6875 -16.2656 -6.6875 Q-15.0469 -6.6875 -14 -5.8672 Q-12.9531 -5.0469 -12.4531 -3.6406 Q-11.7656 -1.7344 -11.7656 0.5469 ZM-14.9219 0.5312 Q-14.9219 -3.125 -14.9688 -3.7344 Q-15.0781 -5.1562 -15.4531 -5.6562 Q-15.7188 -5.9844 -16.2969 -5.9844 Q-16.7344 -5.9844 -16.9844 -5.7344 Q-17.375 -5.375 -17.5078 -4.4688 Q-17.6406 -3.5625 -17.6406 1.8594 Q-17.6406 4.8125 -17.4219 5.8125 Q-17.2812 6.5469 -16.9922 6.7891 Q-16.7031 7.0312 -16.2344 7.0312 Q-15.7188 7.0312 -15.4531 6.7031 Q-15.0312 6.1406 -14.9688 4.9375 L-14.9219 0.5312 ZM-1.2656 0.5469 Q-1.2656 2.625 -1.8594 4.4375 Q-2.2031 5.5469 -2.7891 6.25 Q-3.375 6.9531 -4.125 7.3672 Q-4.875 7.7812 -5.7656 7.7812 Q-6.7656 7.7812 -7.5781 7.2734 Q-8.3906 6.7656 -9.0156 5.8125 Q-9.4688 5.1094 -9.7969 3.9531 Q-10.2344 2.3906 -10.2344 0.7188 Q-10.2344 -1.5469 -9.6094 -3.4531 Q-9.0781 -5.0156 -8.0156 -5.8516 Q-6.9531 -6.6875 -5.7656 -6.6875 Q-4.5469 -6.6875 -3.5 -5.8672 Q-2.4531 -5.0469 -1.9531 -3.6406 Q-1.2656 -1.7344 -1.2656 0.5469 ZM-4.4219 0.5312 Q-4.4219 -3.125 -4.4688 -3.7344 Q-4.5781 -5.1562 -4.9531 -5.6562 Q-5.2188 -5.9844 -5.7969 -5.9844 Q-6.2344 -5.9844 -6.4844 -5.7344 Q-6.875 -5.375 -7.0078 -4.4688 Q-7.1406 -3.5625 -7.1406 1.8594 Q-7.1406 4.8125 -6.9219 5.8125 Q-6.7812 6.5469 -6.4922 6.7891 Q-6.2031 7.0312 -5.7344 7.0312 Q-5.2188 7.0312 -4.9531 6.7031 Q-4.5312 6.1406 -4.4688 4.9375 L-4.4219 0.5312 Z"
         id="path3469" />
    </g>
    <g
       transform="matrix(0,-1.35,1.35,0,54.075395,502.92005)"
       style="font-weight:bold;font-size:23px;font-family:mwb_cmr10;color-interpolation:linearRGB;fill:#262626;stroke:#262626;color-rendering:optimizeQuality;image-rendering:optimizeQuality;text-rendering:geometricPrecision"
       id="g3471">
      <path
         style="stroke:none"
         d="m 1.25,0 q -0.1875,0 -0.1875,-0.1875 0,-0.0156 0.0078,-0.0234 0.0078,-0.0079 0.0078,-0.0547 L 9,-16.2188 q 0.0938,-0.25 0.4062,-0.25 l 0.3126,0 q 1.3281,0 1.4218,0.25 l 7.9219,15.9532 q 0,0.0312 0.0078,0.0468 0.0078,0.0157 0.0078,0.0313 Q 19.0781,0 17.8906,0 L 1.25,0 Z m 2.5156,-1.8438 11.1094,0 -5.6562,-11.3906 -5.4532,11.3906 z"
         id="path3473"
         inkscape:connector-curvature="0" />
    </g>
    <g
       transform="matrix(0,-1.35,1.35,0,54.075395,474.57005)"
       style="font-weight:bold;font-size:23px;font-family:'Times New Roman';color-interpolation:linearRGB;fill:#262626;stroke:#262626;color-rendering:optimizeQuality;image-rendering:optimizeQuality;text-rendering:geometricPrecision"
       id="g3475">
      <path
         style="stroke:none"
         d="m 15.9844,-8.0781 q 2.1718,0.5156 3.0468,1.2343 1.25,1.0157 1.25,2.6407 0,1.7187 -1.375,2.8437 Q 17.2031,0 13.9688,0 l -7.7344,0 0,-0.4219 q 1.0468,0 1.4297,-0.1953 0.3828,-0.1953 0.5312,-0.5078 0.1485,-0.3125 0.1485,-1.5469 l 0,-9.8906 q 0,-1.2344 -0.1485,-1.5547 -0.1484,-0.3203 -0.5312,-0.5078 -0.3829,-0.1875 -1.4297,-0.1875 l 0,-0.4219 7.2968,0 q 2.625,0 3.711,0.4688 1.0859,0.4687 1.7187,1.3984 0.6329,0.9297 0.6329,1.961 0,1.1093 -0.8047,1.9687 -0.8047,0.8594 -2.8047,1.3594 z M 11.8906,-8.375 q 1.5938,0 2.3516,-0.3594 0.7578,-0.3594 1.164,-1.0156 0.4063,-0.6562 0.4063,-1.6562 0,-1.0157 -0.3984,-1.6641 -0.3985,-0.6485 -1.1407,-0.9844 -0.7422,-0.3359 -2.3828,-0.3203 l 0,6 z m 0,0.875 0,4.8906 -0.0156,0.5469 q 0,0.6094 0.3125,0.9219 0.3125,0.3125 0.9219,0.3125 0.8906,0 1.6484,-0.3985 0.7578,-0.3984 1.1641,-1.1562 0.4062,-0.7578 0.4062,-1.6953 0,-1.0625 -0.4922,-1.9141 -0.4921,-0.8516 -1.3593,-1.1875 -0.8672,-0.3359 -2.586,-0.3203 z m 14.3252,-3 0,2.375 q 1.0469,-1.625 1.836,-2.1562 0.789,-0.5313 1.5234,-0.5313 0.625,0 1,0.3828 0.375,0.3828 0.375,1.1016 0,0.75 -0.3672,1.164 -0.3672,0.4141 -0.8828,0.4141 -0.5938,0 -1.0313,-0.3828 -0.4375,-0.3828 -0.5156,-0.4297 -0.1094,-0.0625 -0.25,-0.0625 -0.3281,0 -0.625,0.25 -0.4531,0.375 -0.7031,1.0938 -0.3594,1.0781 -0.3594,2.3906 l 0,2.4218 0.0156,0.625 q 0,0.6407 0.0782,0.8282 0.1406,0.2968 0.4062,0.4375 0.2656,0.1406 0.8906,0.1719 l 0,0.4062 -5.6718,0 0,-0.4062 q 0.6875,-0.0469 0.9297,-0.3672 0.2421,-0.3204 0.2421,-1.6954 l 0,-5.8124 q 0,-0.8907 -0.0937,-1.1407 -0.1094,-0.3125 -0.3281,-0.4609 -0.2188,-0.1484 -0.75,-0.1953 l 0,-0.4219 4.2812,0 z m 11.646,8.9531 q -1.9062,1.6875 -3.4375,1.6875 -0.9062,0 -1.5,-0.5859 -0.5937,-0.5859 -0.5937,-1.4766 0,-1.2031 1.0312,-2.164 1.0313,-0.961 4.5,-2.5547 l 0,-1.0469 q 0,-1.2031 -0.125,-1.5078 -0.125,-0.3047 -0.4844,-0.5391 -0.3593,-0.2344 -0.8125,-0.2344 -0.7343,0 -1.2031,0.3282 -0.2812,0.2031 -0.2812,0.4687 0,0.25 0.3125,0.5938 0.4218,0.4843 0.4218,0.9375 0,0.5468 -0.4062,0.9297 -0.4063,0.3828 -1.0781,0.3828 -0.7032,0 -1.1797,-0.4219 -0.4766,-0.4219 -0.4766,-1 0,-0.8125 0.6406,-1.5469 0.6407,-0.7343 1.7813,-1.125 1.1406,-0.3906 2.375,-0.3906 1.5,0 2.3672,0.6328 0.8672,0.6328 1.1328,1.3672 0.1562,0.4844 0.1562,2.1719 l 0,4.0781 q 0,0.7187 0.0547,0.9063 0.0547,0.1874 0.1719,0.2734 0.1172,0.0859 0.2578,0.0859 0.2969,0 0.5938,-0.4062 l 0.3437,0.2656 q -0.5625,0.8281 -1.164,1.2031 -0.6016,0.375 -1.3672,0.375 -0.9063,0 -1.4063,-0.4218 -0.5,-0.4219 -0.625,-1.2657 z m 0,-0.8281 0,-3.5156 q -1.3437,0.7968 -2.0156,1.7187 -0.4375,0.5938 -0.4375,1.2188 0,0.5156 0.375,0.9062 0.2812,0.3125 0.7812,0.3125 0.5625,0 1.2969,-0.6406 z m 9.9844,-12.8594 0,10.0156 2.4375,-2.3906 q 0.75,-0.7187 0.9375,-1.0468 0.1875,-0.3282 0.1875,-0.625 0,-0.3126 -0.25,-0.5157 -0.25,-0.2031 -0.9688,-0.2812 l 0,-0.4219 4.7032,0 0,0.4219 q -0.6719,0.0312 -1.1797,0.3125 -0.5078,0.2812 -1.9766,1.7187 l -1.1406,1.125 2.4687,3.625 q 1.5,2.2031 1.7813,2.4688 0.375,0.375 0.9531,0.4219 l 0,0.4062 -5.4219,0 0,-0.4062 q 0.3594,0 0.5235,-0.1329 0.164,-0.1328 0.164,-0.289 0,-0.2657 -0.4687,-0.9531 l -2.0781,-3.0469 -0.6719,0.6562 0,1.8907 q 0,1.2031 0.2187,1.5 0.2188,0.2968 0.9219,0.375 l 0,0.4062 -5.4219,0 0,-0.4062 q 0.6563,-0.0626 0.9375,-0.4219 0.1875,-0.25 0.1875,-1.4531 l 0,-10.6719 q 0,-1.1875 -0.2187,-1.4766 -0.2188,-0.2891 -0.9063,-0.3828 l 0,-0.4219 4.2813,0 z m 17.4165,9.6094 -5.7656,0 q 0.1093,2.0938 1.1093,3.2969 0.7813,0.9375 1.875,0.9375 0.6719,0 1.2188,-0.375 0.5469,-0.375 1.1719,-1.3594 l 0.3906,0.25 q -0.8594,1.7344 -1.8906,2.4609 -1.0313,0.7266 -2.3907,0.7266 -2.3281,0 -3.5312,-1.7969 -0.9688,-1.4531 -0.9688,-3.5937 0,-2.625 1.4219,-4.1797 1.4219,-1.5547 3.3281,-1.5547 1.5938,0 2.7657,1.3047 1.1718,1.3047 1.2656,3.8828 z m -2.7656,-0.75 q 0,-1.8125 -0.1953,-2.4844 -0.1954,-0.6718 -0.6172,-1.0312 -0.2344,-0.1875 -0.625,-0.1875 -0.5782,0 -0.9532,0.5625 -0.6562,1 -0.6562,2.75 l 0,0.3906 3.0469,0 z m 15.2553,-0.5156 0,4.2187 q 0,1.2344 0.1563,1.5547 0.1562,0.3203 0.5391,0.5078 0.3828,0.1875 1.4296,0.1875 l 0,0.4219 -7.75,0 0,-0.4219 q 1.0625,0 1.4375,-0.1953 0.375,-0.1953 0.5313,-0.5078 0.1562,-0.3125 0.1562,-1.5469 l 0,-9.8906 q 0,-1.2344 -0.1562,-1.5547 -0.1563,-0.3203 -0.5391,-0.5078 -0.3828,-0.1875 -1.4297,-0.1875 l 0,-0.4219 6.6407,0 q 3.2812,0 4.7109,1.1719 1.4297,1.1719 1.4297,2.9219 0,1.4844 -0.9219,2.539 -0.9219,1.0547 -2.5469,1.4297 -1.0781,0.2813 -3.6875,0.2813 z m 0,-7.4688 0,6.5938 q 0.375,0.0156 0.5625,0.0156 1.375,0 2.1172,-0.8125 0.7422,-0.8125 0.7422,-2.5156 0,-1.7031 -0.7422,-2.4922 -0.7422,-0.7891 -2.2109,-0.7891 l -0.4688,0 z m 14.4087,12.8125 q -1.9062,1.6875 -3.4375,1.6875 -0.9062,0 -1.5,-0.5859 -0.5937,-0.5859 -0.5937,-1.4766 0,-1.2031 1.0312,-2.164 1.0313,-0.961 4.5,-2.5547 l 0,-1.0469 q 0,-1.2031 -0.125,-1.5078 -0.125,-0.3047 -0.4843,-0.5391 -0.3594,-0.2344 -0.8125,-0.2344 -0.7344,0 -1.2032,0.3282 -0.2812,0.2031 -0.2812,0.4687 0,0.25 0.3125,0.5938 0.4219,0.4843 0.4219,0.9375 0,0.5468 -0.4063,0.9297 -0.4062,0.3828 -1.0781,0.3828 -0.7031,0 -1.1797,-0.4219 -0.4766,-0.4219 -0.4766,-1 0,-0.8125 0.6407,-1.5469 0.6406,-0.7343 1.7812,-1.125 1.1406,-0.3906 2.375,-0.3906 1.5,0 2.3672,0.6328 0.8672,0.6328 1.1328,1.3672 0.1563,0.4844 0.1563,2.1719 l 0,4.0781 q 0,0.7187 0.0546,0.9063 0.0547,0.1874 0.1719,0.2734 0.1172,0.0859 0.2578,0.0859 0.2969,0 0.5938,-0.4062 l 0.3437,0.2656 q -0.5625,0.8281 -1.164,1.2031 -0.6016,0.375 -1.3672,0.375 -0.9063,0 -1.4063,-0.4218 -0.5,-0.4219 -0.625,-1.2657 z m 0,-0.8281 0,-3.5156 q -1.3437,0.7968 -2.0156,1.7187 -0.4375,0.5938 -0.4375,1.2188 0,0.5156 0.375,0.9062 0.2813,0.3125 0.7813,0.3125 0.5625,0 1.2968,-0.6406 z m 15.9219,-12.8594 0,12.0938 q 0,1.2187 0.0625,1.4375 0.0938,0.375 0.3438,0.5547 0.25,0.1796 0.8906,0.2265 l 0,0.375 -4.4375,0.8594 0,-1.6563 q -0.7969,0.9688 -1.4219,1.3126 -0.625,0.3437 -1.4062,0.3437 -2.0157,0 -3.1875,-1.7969 -0.9375,-1.4531 -0.9375,-3.5781 0,-1.7031 0.5859,-3.0391 0.5859,-1.3359 1.6016,-2.0234 1.0156,-0.6875 2.1718,-0.6875 0.7657,0 1.3438,0.2891 0.5781,0.289 1.25,1.0234 l 0,-3.1719 q 0,-1.2031 -0.1094,-1.4375 -0.125,-0.3281 -0.3984,-0.4844 -0.2735,-0.1562 -1.0078,-0.1562 l 0,-0.4844 4.6562,0 z m -3.1406,7.125 q -0.8281,-1.5937 -2.0313,-1.5937 -0.4218,0 -0.6875,0.2187 -0.4218,0.3594 -0.6875,1.2344 -0.2656,0.875 -0.2656,2.6719 0,2 0.2969,2.9531 0.2969,0.9531 0.7969,1.375 0.2656,0.2188 0.7031,0.2188 1,0 1.875,-1.5469 l 0,-5.5313 z m 16.9634,-6.25 0,6.2032 0.2968,0 q 1.4532,0 2.1094,-0.9063 0.6563,-0.9063 0.8281,-2.6875 l 0.4219,0 0,7.9688 -0.4219,0 q -0.1406,-1.2969 -0.5703,-2.125 -0.4297,-0.8282 -1,-1.1172 -0.5703,-0.2891 -1.664,-0.2891 l 0,4.2969 q 0,1.25 0.1093,1.5312 0.1094,0.2813 0.3985,0.461 0.289,0.1796 0.9453,0.1796 l 0.9062,0 q 2.1407,0 3.4219,-0.9843 1.2813,-0.9844 1.8438,-3.0157 l 0.4218,0 -0.6875,4.8438 -13.1718,0 0,-0.4219 0.5156,0 q 0.6562,0 1.0625,-0.2343 0.2969,-0.1563 0.4531,-0.5313 0.125,-0.2656 0.125,-1.4219 l 0,-10.0156 q 0,-1.0312 -0.0625,-1.2656 -0.1094,-0.3906 -0.4062,-0.6094 -0.4375,-0.3125 -1.1719,-0.3125 l -0.5156,0 0,-0.4219 12.75,0 0,4.5156 -0.4219,0 q -0.3281,-1.6562 -0.9141,-2.375 -0.5859,-0.7187 -1.664,-1.0624 -0.6407,-0.2032 -2.3594,-0.2032 l -1.5781,0 z m 16.0595,7.9219 1.8282,3.4687 q 0.9375,1.7969 1.4843,2.2813 0.3125,0.2656 0.8282,0.2813 l 0,0.4062 -5.8438,0 0,-0.4062 q 0.6875,-0.0469 0.8516,-0.1719 0.164,-0.125 0.164,-0.3438 0,-0.3125 -0.3593,-0.9843 l -0.9219,-1.7032 -0.7656,1.125 q -0.5313,0.7813 -0.5938,0.9219 -0.0937,0.2187 -0.0937,0.3906 0,0.25 0.1093,0.4219 0.1094,0.1719 0.2891,0.2578 0.1797,0.086 0.6797,0.086 l 0,0.4062 -4.1094,0 0,-0.4062 q 0.7656,0 1.3984,-0.4219 0.6329,-0.4219 1.8516,-2.2031 l 0.8594,-1.2813 -1.8125,-3.3437 q -0.8906,-1.6407 -1.3281,-2.0157 -0.4375,-0.375 -0.9688,-0.4062 l 0,-0.4219 5.8125,0 0,0.4219 -0.2969,0 -0.5937,0.2031 q -0.0781,0.0781 -0.0781,0.2656 0,0.1719 0.0468,0.3438 0.0313,0.0781 0.3125,0.6094 l 0.8282,1.5312 0.4218,-0.6094 q 0.9063,-1.2344 0.9063,-1.7344 0,-0.2343 -0.2031,-0.3984 -0.2032,-0.164 -0.7032,-0.2109 l 0,-0.4219 3.7188,0 0,0.4219 q -0.6875,0.0156 -1.2813,0.414 -0.5937,0.3985 -1.3281,1.5391 l -1.1094,1.6875 z m 9.4532,-7.9063 0,3.8438 2.5,0 0,1.1094 -2.5,0 0,6.4844 q 0,0.9062 0.0859,1.1718 0.0859,0.2656 0.2969,0.4297 0.2109,0.1641 0.3984,0.1641 0.7344,0 1.375,-1.1094 l 0.3438,0.2344 q -0.9063,2.1562 -2.9532,2.1562 -1,0 -1.6953,-0.5547 -0.6953,-0.5547 -0.8828,-1.2421 -0.1094,-0.375 -0.1094,-2.0626 l 0,-5.6718 -1.375,0 0,-0.3906 q 1.4219,-1 2.4141,-2.1016 0.9922,-1.1016 1.7422,-2.461 l 0.3594,0 z m 12.3935,8.7188 -5.7656,0 q 0.1094,2.0938 1.1094,3.2969 0.7812,0.9375 1.875,0.9375 0.6718,0 1.2187,-0.375 0.5469,-0.375 1.1719,-1.3594 l 0.3906,0.25 q -0.8594,1.7344 -1.8906,2.4609 -1.0313,0.7266 -2.3906,0.7266 -2.3282,0 -3.5313,-1.7969 -0.9687,-1.4531 -0.9687,-3.5937 0,-2.625 1.4218,-4.1797 1.4219,-1.5547 3.3282,-1.5547 1.5937,0 2.7656,1.3047 1.1719,1.3047 1.2656,3.8828 z m -2.7656,-0.75 q 0,-1.8125 -0.1953,-2.4844 -0.1953,-0.6718 -0.6172,-1.0312 -0.2344,-0.1875 -0.625,-0.1875 -0.5781,0 -0.9531,0.5625 -0.6563,1 -0.6563,2.75 l 0,0.3906 3.0469,0 z m 8.3647,-4.125 0,1.3594 q 0.8125,-0.875 1.5547,-1.2735 0.7422,-0.3984 1.586,-0.3984 1.0312,0 1.7031,0.5625 0.6719,0.5625 0.8906,1.4062 0.1875,0.6407 0.1875,2.4688 l 0,4.0781 q 0,1.2188 0.2188,1.5157 0.2187,0.2968 0.9218,0.375 l 0,0.4062 -5.3125,0 0,-0.4062 q 0.5938,-0.0782 0.8438,-0.5 0.1875,-0.2657 0.1875,-1.3907 l 0,-4.6719 q 0,-1.2812 -0.1016,-1.6171 -0.1015,-0.336 -0.3437,-0.5235 -0.2422,-0.1875 -0.5391,-0.1875 -0.9687,0 -1.7969,1.375 l 0,5.625 q 0,1.1875 0.2188,1.5 0.2187,0.3125 0.8125,0.3907 l 0,0.4062 -5.3125,0 0,-0.4062 q 0.6719,-0.0626 0.9531,-0.4219 0.1875,-0.25 0.1875,-1.4688 l 0,-5.9219 q 0,-1.1874 -0.2187,-1.4843 -0.2188,-0.2969 -0.9219,-0.375 l 0,-0.4219 4.2812,0 z m 15.1353,-0.2969 0.1719,3.5938 -0.375,0 q -0.6875,-1.6094 -1.4219,-2.1875 -0.7344,-0.5782 -1.4688,-0.5782 -0.4531,0 -0.7812,0.3047 -0.3281,0.3047 -0.3281,0.711 0,0.3125 0.2187,0.5937 0.3594,0.4532 2.0156,1.5703 1.6563,1.1172 2.1719,1.8985 0.5156,0.7812 0.5156,1.75 0,0.875 -0.4375,1.7187 -0.4375,0.8438 -1.2343,1.2891 -0.7969,0.4453 -1.7657,0.4453 -0.75,0 -2,-0.4687 -0.3437,-0.125 -0.4687,-0.125 -0.3594,0 -0.6094,0.5624 l -0.375,0 -0.1719,-3.7812 0.375,0 q 0.5,1.4844 1.3828,2.2266 0.8829,0.7422 1.6797,0.7422 0.5313,0 0.875,-0.3282 0.3438,-0.3281 0.3438,-0.7968 0,-0.5469 -0.336,-0.9376 -0.3359,-0.3906 -1.5078,-1.1874 -1.7187,-1.1876 -2.2187,-1.8282 -0.75,-0.9218 -0.75,-2.0312 0,-1.2032 0.8359,-2.1875 0.836,-0.9844 2.4297,-0.9844 0.8438,0 1.6406,0.4063 0.3125,0.1718 0.5,0.1718 0.2032,0 0.3282,-0.0859 0.125,-0.0859 0.3906,-0.4766 l 0.375,0 z m 4.8413,-4.7969 q 0.7344,0 1.2422,0.5157 0.5078,0.5156 0.5078,1.2343 0,0.7188 -0.5156,1.2188 -0.5157,0.5 -1.2344,0.5 -0.7188,0 -1.2188,-0.5 -0.5,-0.5 -0.5,-1.2188 0,-0.7187 0.5,-1.2343 0.5,-0.5157 1.2188,-0.5157 z m 1.5781,5.0938 0,8.3281 q 0,1.1094 0.2578,1.4141 0.2578,0.3047 1.0078,0.3516 l 0,0.4062 -5.6718,0 0,-0.4062 q 0.7031,-0.0157 1.0312,-0.4063 0.2344,-0.25 0.2344,-1.3594 l 0,-6.1406 q 0,-1.1094 -0.2578,-1.4219 -0.2578,-0.3125 -1.0078,-0.3437 l 0,-0.4219 4.4062,0 z m 7.2495,-0.3125 q 1.3594,0 2.5391,0.7031 1.1797,0.7032 1.7969,2.0078 0.6172,1.3047 0.6172,2.8516 0,2.2344 -1.1407,3.75 -1.375,1.8125 -3.7812,1.8125 -2.375,0 -3.6563,-1.6641 -1.2812,-1.664 -1.2812,-3.8515 0,-2.25 1.3125,-3.9297 1.3125,-1.6797 3.5937,-1.6797 z m 0.0313,0.7969 q -0.5625,0 -0.9766,0.4297 -0.414,0.4297 -0.539,1.7031 -0.125,1.2734 -0.125,3.5547 0,1.1875 0.1562,2.2343 0.125,0.7969 0.5313,1.2188 0.4062,0.4219 0.9218,0.4219 0.5,0 0.8282,-0.2813 0.4531,-0.3906 0.5937,-1.0781 0.2188,-1.0625 0.2188,-4.3125 0,-1.9062 -0.211,-2.6172 -0.2109,-0.7109 -0.6328,-1.039 -0.2812,-0.2344 -0.7656,-0.2344 z m 10.7969,-0.4844 0,1.3594 q 0.8125,-0.875 1.5546,-1.2735 0.7422,-0.3984 1.586,-0.3984 1.0312,0 1.7031,0.5625 0.6719,0.5625 0.8906,1.4062 0.1875,0.6407 0.1875,2.4688 l 0,4.0781 q 0,1.2188 0.2188,1.5157 0.2187,0.2968 0.9219,0.375 l 0,0.4062 -5.3125,0 0,-0.4062 q 0.5937,-0.0782 0.8437,-0.5 0.1875,-0.2657 0.1875,-1.3907 l 0,-4.6719 q 0,-1.2812 -0.1016,-1.6171 -0.1015,-0.336 -0.3437,-0.5235 -0.2422,-0.1875 -0.5391,-0.1875 -0.9687,0 -1.7968,1.375 l 0,5.625 q 0,1.1875 0.2187,1.5 0.2188,0.3125 0.8125,0.3907 l 0,0.4062 -5.3125,0 0,-0.4062 q 0.6719,-0.0626 0.9531,-0.4219 0.1875,-0.25 0.1875,-1.4688 l 0,-5.9219 q 0,-1.1874 -0.2187,-1.4843 -0.2188,-0.2969 -0.9219,-0.375 l 0,-0.4219 4.2813,0 z m 20.8696,-5.0781 0,0.5156 q -1.1719,0.7656 -1.7188,1.5 -0.7656,1 -1.1875,2.5937 Q 222.46,-9 222.46,-5.4844 q 0,3.3282 0.4921,5.1719 0.4922,1.8437 1.336,2.9687 0.5781,0.7969 1.625,1.3907 l 0,0.5625 q -2.7031,-0.9219 -4.586,-3.7188 -1.8828,-2.7968 -1.8828,-6.4375 0,-3.5937 1.875,-6.3593 1.875,-2.7657 4.5938,-3.6719 z"
         id="path3477"
         inkscape:connector-curvature="0" />
    </g>
    <g
       transform="matrix(0,-1.35,1.35,0,53.71087,167.86481)"
       style="font-weight:bold;font-size:23px;font-family:mwb_cmmi10;color-interpolation:linearRGB;fill:#262626;stroke:#262626;color-rendering:optimizeQuality;image-rendering:optimizeQuality;text-rendering:geometricPrecision"
       id="g3479">
      <path
         style="stroke:none"
         d="m 0.6406,4.3281 q 0,-0.1406 0.0156,-0.1875 L 4.0469,-9.4375 q 0.0937,-0.3281 0.3593,-0.5234 0.2657,-0.1953 0.6094,-0.1953 1.2813,0 1.4844,0.1718 0.2031,0.1719 0.2031,0.4532 0,0.0781 -0.0078,0.1171 -0.0078,0.0391 -0.0078,0.086 l -1.3594,5.375 Q 5.0938,-3 5.0938,-2.2969 q 0,0.8438 0.4062,1.3985 0.4062,0.5546 0.4062,0.5546 1.5,0 2.7657,-2.0937 0.0156,-0.0156 0.0156,-0.0313 0,-0.0156 0,-0.0312 l 1.6719,-6.6719 q 0.0781,-0.3125 0.3594,-0.5312 0.2812,-0.2188 0.6093,-0.2188 1.2657,0 1.4688,0.1797 Q 13,-9.5625 13,-9.2656 q 0,0.1406 -0.0156,0.1875 l -1.6563,6.625 q -0.1719,0.6406 -0.1719,1.1093 0,1 0,1 0.4063,0 0.7657,-0.8906 0.3593,-0.8906 0.6406,-2.1406 0.0313,-0.1406 0.1875,-0.1406 l 0.2656,0 q 1.0938,0 1.1563,0.0703 0.0625,0.0703 0.0625,0.1484 -0.4063,1.6094 -0.8828,2.586 -0.4766,0.9765 -2.5547,0.9765 -0.7657,0 -1.3594,-0.4453 -0.5937,-0.4453 -0.5937,-0.4453 0,0 -0.6407,0.4453 -0.6406,0.4453 -2.5,0.4453 -1.4375,0 -1.5469,-0.0937 L 3.2812,4.2344 Q 3.2188,4.5625 2.9453,4.7656 2.6719,4.9688 1.3438,4.9688 1.0625,4.9688 0.8516,4.7891 0.6406,4.6094 0.6406,4.3281 Z"
         id="path3481"
         inkscape:connector-curvature="0" />
    </g>
    <g
       transform="matrix(0,-1.35,1.35,0,54.075395,146.52005)"
       style="font-weight:bold;font-size:23px;font-family:'Times New Roman';color-interpolation:linearRGB;fill:#262626;stroke:#262626;color-rendering:optimizeQuality;image-rendering:optimizeQuality;text-rendering:geometricPrecision"
       id="g3483">
      <path
         style="stroke:none"
         d="m 5.125,-10.5 0,1.375 q 0.875,-0.9375 1.6094,-1.3125 0.7344,-0.375 1.6094,-0.375 1.0156,0 1.6953,0.4687 0.6797,0.4688 1.0547,1.4376 0.9062,-1.0157 1.7265,-1.461 0.8203,-0.4453 1.7266,-0.4453 1.0937,0 1.7343,0.5 0.6407,0.5 0.8985,1.2656 0.2578,0.7657 0.2578,2.4531 l 0,4.2969 q 0,1.2188 0.2187,1.5078 0.2188,0.2891 0.9063,0.3829 l 0,0.4062 -5.4219,0 0,-0.4062 q 0.6406,-0.0469 0.9375,-0.5 0.2031,-0.2969 0.2031,-1.3907 l 0,-4.5156 q 0,-1.3906 -0.1093,-1.7734 -0.1094,-0.3829 -0.3516,-0.5703 -0.2422,-0.1876 -0.5703,-0.1876 -0.4844,0 -0.9766,0.3516 -0.4922,0.3516 -0.9922,1.0703 l 0,5.625 q 0,1.1407 0.1876,1.4375 0.25,0.4063 0.9843,0.4532 l 0,0.4062 -5.4375,0 0,-0.4062 Q 7.4531,-0.4219 7.7109,-0.6172 7.9688,-0.8125 8.0469,-1.0938 8.125,-1.375 8.125,-2.2969 l 0,-4.5156 q 0,-1.4219 -0.1094,-1.7813 Q 7.9062,-8.9531 7.6406,-9.1562 7.375,-9.3594 7.0781,-9.3594 6.625,-9.3594 6.25,-9.125 5.7344,-8.7656 5.125,-7.9219 l 0,5.625 q 0,1.125 0.2266,1.4766 0.2265,0.3515 0.914,0.4141 l 0,0.4062 -5.4062,0 0,-0.4062 q 0.6562,-0.0626 0.9375,-0.4219 0.1875,-0.25 0.1875,-1.4688 l 0,-5.9219 q 0,-1.1874 -0.2188,-1.4843 Q 1.5469,-10 0.8594,-10.0781 l 0,-0.4219 4.2656,0 z m 14.3154,15.1094 0,-0.5156 q 1.1719,-0.7813 1.7188,-1.5157 0.75,-1 1.1875,-2.5781 0.5469,-1.9844 0.5469,-5.5 0,-3.3281 -0.4922,-5.1641 -0.4922,-1.8359 -1.336,-2.9765 -0.5781,-0.7813 -1.625,-1.375 l 0,-0.5625 q 2.7032,0.9062 4.586,3.7109 1.8828,2.8047 1.8828,6.4453 0,3.5781 -1.8828,6.3438 -1.8828,2.7656 -4.586,3.6875 z"
         id="path3485"
         inkscape:connector-curvature="0" />
    </g>
    <g
       style="stroke-linecap:butt; text-rendering:geometricPrecision; color-rendering:optimizeQuality; image-rendering:optimizeQuality; stroke-linejoin:bevel; stroke-dasharray:10,6; color-interpolation:linearRGB; stroke-width:0.6667; stroke-miterlimit:1;"
       id="g3487">
      <line
         y2="71.5"
         style="fill:none;"
         x1="198.8333"
         x2="198.8333"
         y1="136.3249"
         id="line3489" />
      <line
         y2="123.6967"
         style="fill:none;"
         x1="396.5"
         x2="396.5"
         y1="143.9018"
         id="line3491" />
      <line
         y2="313.9619"
         style="fill:none;"
         x1="594.1667"
         x2="594.1667"
         y1="323.2226"
         id="line3493" />
      <line
         y2="379.6287"
         style="fill:none;"
         x1="198.8333"
         x2="198.8333"
         y1="438.5604"
         id="line3495" />
      <line
         y2="446.1373"
         style="fill:none;"
         x1="396.5"
         x2="396.5"
         y1="460.4493"
         id="line3497" />
      <line
         y2="396.4663"
         style="fill:none;"
         x1="594.1667"
         x2="594.1667"
         y1="457.0818"
         id="line3499" />
      <line
         x1="176.5958"
         x2="221.0708"
         y1="71.5"
         style="fill:none; stroke-linejoin:round; stroke-dasharray:none; stroke-miterlimit:10;"
         y2="71.5"
         id="line3501" />
      <line
         x1="374.2625"
         x2="418.7375"
         y1="123.6967"
         style="fill:none; stroke-linejoin:round; stroke-dasharray:none; stroke-miterlimit:10;"
         y2="123.6967"
         id="line3503" />
      <line
         x1="571.9292"
         x2="616.4042"
         y1="313.9619"
         style="fill:none; stroke-linejoin:round; stroke-dasharray:none; stroke-miterlimit:10;"
         y2="313.9619"
         id="line3505" />
      <line
         x1="176.5958"
         x2="221.0708"
         y1="438.5604"
         style="fill:none; stroke-linejoin:round; stroke-dasharray:none; stroke-miterlimit:10;"
         y2="438.5604"
         id="line3507" />
      <line
         x1="374.2625"
         x2="418.7375"
         y1="460.4493"
         style="fill:none; stroke-linejoin:round; stroke-dasharray:none; stroke-miterlimit:10;"
         y2="460.4493"
         id="line3509" />
      <line
         x1="571.9292"
         x2="616.4042"
         y1="457.0818"
         style="fill:none; stroke-linejoin:round; stroke-dasharray:none; stroke-miterlimit:10;"
         y2="457.0818"
         id="line3511" />
    </g>
    <g
       style="stroke-linecap:butt; fill:blue; text-rendering:geometricPrecision; color-rendering:optimizeQuality; image-rendering:optimizeQuality; stroke-linejoin:round; color-interpolation:linearRGB; stroke:blue; stroke-width:0.6667;"
       id="g3513">
      <path
         d="M154.3583 379.6287 L154.3583 136.3249 L243.3083 136.3249 L243.3083 379.6287 L154.3583 379.6287"
         style="fill:none; fill-rule:evenodd;"
         id="path3515" />
      <path
         d="M352.025 446.1373 L352.025 143.9018 L440.975 143.9018 L440.975 446.1373 L352.025 446.1373"
         style="fill:none; fill-rule:evenodd;"
         id="path3517" />
      <path
         d="M549.6917 396.4663 L549.6917 323.2226 L638.6417 323.2226 L638.6417 396.4663 L549.6917 396.4663"
         style="fill:none; fill-rule:evenodd;"
         id="path3519" />
      <line
         x1="154.3583"
         x2="243.3083"
         y1="212.9361"
         style="fill:none; stroke:red;"
         y2="212.9361"
         id="line3521" />
      <line
         x1="352.025"
         x2="440.975"
         y1="373.7355"
         style="fill:none; stroke:red;"
         y2="373.7355"
         id="line3523" />
      <line
         x1="549.6917"
         x2="638.6417"
         y1="357.7397"
         style="fill:none; stroke:red;"
         y2="357.7397"
         id="line3525" />
    </g>
    <g
       style="fill:red; text-rendering:optimizeSpeed; color-rendering:optimizeSpeed; image-rendering:optimizeSpeed; shape-rendering:crispEdges; color-interpolation:sRGB; stroke:red;"
       id="g3527">
      <path
         style="stroke:none;"
         d="M198.5 250.832 L202.5 245.5 L198.5 240.168 L194.5 245.5 Z"
         id="path3529" />
    </g>
    <g
       style="stroke-linecap:butt; fill:red; text-rendering:geometricPrecision; color-rendering:optimizeQuality; image-rendering:optimizeQuality; color-interpolation:linearRGB; stroke:red;"
       id="g3531">
      <path
         d="M198.5 250.832 L202.5 245.5 L198.5 240.168 L194.5 245.5 Z"
         style="fill:none; fill-rule:evenodd;"
         id="path3533" />
    </g>
    <g
       style="fill:red; text-rendering:optimizeSpeed; color-rendering:optimizeSpeed; image-rendering:optimizeSpeed; shape-rendering:crispEdges; color-interpolation:sRGB; stroke:red;"
       id="g3535">
      <path
         style="stroke:none;"
         d="M396.5 318.832 L400.5 313.5 L396.5 308.168 L392.5 313.5 Z"
         id="path3537" />
    </g>
    <g
       style="stroke-linecap:butt; fill:red; text-rendering:geometricPrecision; color-rendering:optimizeQuality; image-rendering:optimizeQuality; color-interpolation:linearRGB; stroke:red;"
       id="g3539">
      <path
         d="M396.5 318.832 L400.5 313.5 L396.5 308.168 L392.5 313.5 Z"
         style="fill:none; fill-rule:evenodd;"
         id="path3541" />
    </g>
    <g
       style="fill:red; text-rendering:optimizeSpeed; color-rendering:optimizeSpeed; image-rendering:optimizeSpeed; shape-rendering:crispEdges; color-interpolation:sRGB; stroke:red;"
       id="g3543">
      <path
         style="stroke:none;"
         d="M594.5 370.832 L598.5 365.5 L594.5 360.168 L590.5 365.5 Z"
         id="path3545" />
    </g>
    <g
       style="stroke-linecap:butt; fill:red; text-rendering:geometricPrecision; color-rendering:optimizeQuality; image-rendering:optimizeQuality; color-interpolation:linearRGB; stroke:red;"
       id="g3547">
      <path
         d="M594.5 370.832 L598.5 365.5 L594.5 360.168 L590.5 365.5 Z"
         style="fill:none; fill-rule:evenodd;"
         id="path3549" />
    </g>
    <g
       style="fill:white; text-rendering:optimizeSpeed; color-rendering:optimizeSpeed; image-rendering:optimizeSpeed; shape-rendering:crispEdges; color-interpolation:sRGB; stroke:white;"
       id="g3551">
      <path
         style="stroke:none;"
         d="M561 111 L561 61 L680 61 L680 111 Z"
         id="path3553" />
    </g>
    <g
       transform="translate(613,74.6667)"
       style="font-size:19px; text-rendering:geometricPrecision; color-rendering:optimizeQuality; image-rendering:optimizeQuality; font-family:'Times New Roman'; color-interpolation:linearRGB; font-weight:bold;"
       id="g3555">
      <path
         style="stroke:none;"
         d="M9.0625 2.7188 L12.4688 -5.5781 L17.5938 -5.5781 L17.5938 -5.2344 L17.1875 -5.2344 Q16.625 -5.2344 16.2969 -5.0469 Q16.0625 -4.9062 15.9219 -4.6094 Q15.8125 -4.3906 15.8125 -3.4531 L15.8125 4.8438 Q15.8125 5.8125 15.9141 6.0547 Q16.0156 6.2969 16.3359 6.4766 Q16.6562 6.6562 17.1875 6.6562 L17.5938 6.6562 L17.5938 7 L11.0156 7 L11.0156 6.6562 L11.4375 6.6562 Q11.9844 6.6562 12.3281 6.4688 Q12.5469 6.3281 12.6875 6.0156 Q12.7969 5.7969 12.7969 4.8438 L12.7969 -4.4688 L7.9688 7 L7.75 7 L2.8438 -4.3906 L2.8438 4.4688 Q2.8438 5.3906 2.8906 5.6094 Q3.0156 6.0781 3.4219 6.3672 Q3.8281 6.6562 4.6875 6.6562 L4.6875 7 L0.375 7 L0.375 6.6562 L0.5156 6.6562 Q0.9219 6.6719 1.2891 6.5234 Q1.6562 6.375 1.8359 6.1328 Q2.0156 5.8906 2.125 5.4531 Q2.1406 5.3594 2.1406 4.5156 L2.1406 -3.4531 Q2.1406 -4.4062 2.0391 -4.6406 Q1.9375 -4.875 1.625 -5.0547 Q1.3125 -5.2344 0.7812 -5.2344 L0.375 -5.2344 L0.375 -5.5781 L5.5156 -5.5781 L9.0625 2.7188 ZM25.9175 2.3594 L21.1675 2.3594 Q21.2456 4.0781 22.0737 5.0781 Q22.7144 5.8438 23.6206 5.8438 Q24.1831 5.8438 24.6362 5.5391 Q25.0894 5.2344 25.605 4.4219 L25.9175 4.625 Q25.2144 6.0625 24.3628 6.6641 Q23.5112 7.2656 22.3862 7.2656 Q20.4644 7.2656 19.4644 5.7812 Q18.6675 4.5781 18.6675 2.8125 Q18.6675 0.6406 19.8394 -0.6484 Q21.0112 -1.9375 22.5894 -1.9375 Q23.9019 -1.9375 24.8706 -0.8516 Q25.8394 0.2344 25.9175 2.3594 ZM23.6362 1.7344 Q23.6362 0.2344 23.4722 -0.3203 Q23.3081 -0.875 22.9644 -1.1719 Q22.7769 -1.3281 22.4487 -1.3281 Q21.9644 -1.3281 21.6675 -0.8594 Q21.1206 -0.0312 21.1206 1.4062 L21.1206 1.7344 L23.6362 1.7344 ZM31.7881 5.7188 Q30.21 7.125 28.9443 7.125 Q28.21 7.125 27.7178 6.6328 Q27.2256 6.1406 27.2256 5.4062 Q27.2256 4.4219 28.0771 3.625 Q28.9287 2.8281 31.7881 1.5156 L31.7881 0.6406 Q31.7881 -0.3438 31.6865 -0.5938 Q31.585 -0.8438 31.2881 -1.0391 Q30.9912 -1.2344 30.6162 -1.2344 Q30.0068 -1.2344 29.6162 -0.9531 Q29.3818 -0.7969 29.3818 -0.5781 Q29.3818 -0.375 29.6475 -0.0938 Q29.9912 0.3125 29.9912 0.6875 Q29.9912 1.1406 29.6553 1.4609 Q29.3193 1.7812 28.7725 1.7812 Q28.1787 1.7812 27.7881 1.4297 Q27.3975 1.0781 27.3975 0.5938 Q27.3975 -0.0625 27.9287 -0.6719 Q28.46 -1.2812 29.4053 -1.6094 Q30.3506 -1.9375 31.3662 -1.9375 Q32.6006 -1.9375 33.3193 -1.4141 Q34.0381 -0.8906 34.2568 -0.2812 Q34.3818 0.1094 34.3818 1.5156 L34.3818 4.8906 Q34.3818 5.4844 34.4287 5.6328 Q34.4756 5.7812 34.5693 5.8594 Q34.6631 5.9375 34.7881 5.9375 Q35.0225 5.9375 35.2725 5.5938 L35.5537 5.8125 Q35.085 6.5 34.5928 6.8125 Q34.1006 7.125 33.46 7.125 Q32.7256 7.125 32.3037 6.7734 Q31.8818 6.4219 31.7881 5.7188 ZM31.7881 5.0469 L31.7881 2.1406 Q30.6787 2.7969 30.1162 3.5469 Q29.7568 4.0469 29.7568 4.5625 Q29.7568 4.9844 30.0693 5.3125 Q30.3037 5.5625 30.71 5.5625 Q31.1787 5.5625 31.7881 5.0469 ZM40.0537 -1.6719 L40.0537 -0.5469 Q40.7256 -1.2812 41.335 -1.6094 Q41.9443 -1.9375 42.6475 -1.9375 Q43.4912 -1.9375 44.0459 -1.4688 Q44.6006 -1 44.7881 -0.2969 Q44.9443 0.2344 44.9443 1.7344 L44.9443 5.1094 Q44.9443 6.1094 45.124 6.3516 Q45.3037 6.5938 45.8818 6.6719 L45.8818 7 L41.4912 7 L41.4912 6.6719 Q41.9756 6.5938 42.1943 6.25 Q42.335 6.0312 42.335 5.1094 L42.335 1.25 Q42.335 0.1875 42.2568 -0.0938 Q42.1787 -0.375 41.9756 -0.5312 Q41.7725 -0.6875 41.5381 -0.6875 Q40.7412 -0.6875 40.0537 0.4531 L40.0537 5.1094 Q40.0537 6.0781 40.2334 6.3359 Q40.4131 6.5938 40.8975 6.6719 L40.8975 7 L36.5225 7 L36.5225 6.6719 Q37.0693 6.6094 37.2881 6.3125 Q37.46 6.1094 37.46 5.1094 L37.46 0.2031 Q37.46 -0.7812 37.2725 -1.0156 Q37.085 -1.25 36.5225 -1.3281 L36.5225 -1.6719 L40.0537 -1.6719 Z"
         id="path3557" />
    </g>
    <g
       style="fill:red; text-rendering:optimizeSpeed; color-rendering:optimizeSpeed; image-rendering:optimizeSpeed; shape-rendering:crispEdges; color-interpolation:sRGB; stroke:red;"
       id="g3559">
      <path
         style="stroke:none;"
         d="M589.5 79.832 L593.5 74.5 L589.5 69.168 L585.5 74.5 Z"
         id="path3561" />
    </g>
    <g
       style="stroke-linecap:butt; fill:red; text-rendering:geometricPrecision; color-rendering:optimizeQuality; image-rendering:optimizeQuality; color-interpolation:linearRGB; stroke:red;"
       id="g3563">
      <path
         d="M589.5 79.832 L593.5 74.5 L589.5 69.168 L585.5 74.5 Z"
         style="fill:none; fill-rule:evenodd;"
         id="path3565" />
    </g>
    <g
       transform="translate(613,97.3333)"
       style="font-size:19px; text-rendering:geometricPrecision; color-rendering:optimizeQuality; image-rendering:optimizeQuality; font-family:'Times New Roman'; color-interpolation:linearRGB; font-weight:bold;"
       id="g3567">
      <path
         style="stroke:none;"
         d="M9.0625 2.7188 L12.4688 -5.5781 L17.5938 -5.5781 L17.5938 -5.2344 L17.1875 -5.2344 Q16.625 -5.2344 16.2969 -5.0469 Q16.0625 -4.9062 15.9219 -4.6094 Q15.8125 -4.3906 15.8125 -3.4531 L15.8125 4.8438 Q15.8125 5.8125 15.9141 6.0547 Q16.0156 6.2969 16.3359 6.4766 Q16.6562 6.6562 17.1875 6.6562 L17.5938 6.6562 L17.5938 7 L11.0156 7 L11.0156 6.6562 L11.4375 6.6562 Q11.9844 6.6562 12.3281 6.4688 Q12.5469 6.3281 12.6875 6.0156 Q12.7969 5.7969 12.7969 4.8438 L12.7969 -4.4688 L7.9688 7 L7.75 7 L2.8438 -4.3906 L2.8438 4.4688 Q2.8438 5.3906 2.8906 5.6094 Q3.0156 6.0781 3.4219 6.3672 Q3.8281 6.6562 4.6875 6.6562 L4.6875 7 L0.375 7 L0.375 6.6562 L0.5156 6.6562 Q0.9219 6.6719 1.2891 6.5234 Q1.6562 6.375 1.8359 6.1328 Q2.0156 5.8906 2.125 5.4531 Q2.1406 5.3594 2.1406 4.5156 L2.1406 -3.4531 Q2.1406 -4.4062 2.0391 -4.6406 Q1.9375 -4.875 1.625 -5.0547 Q1.3125 -5.2344 0.7812 -5.2344 L0.375 -5.2344 L0.375 -5.5781 L5.5156 -5.5781 L9.0625 2.7188 ZM25.9175 2.3594 L21.1675 2.3594 Q21.2456 4.0781 22.0737 5.0781 Q22.7144 5.8438 23.6206 5.8438 Q24.1831 5.8438 24.6362 5.5391 Q25.0894 5.2344 25.605 4.4219 L25.9175 4.625 Q25.2144 6.0625 24.3628 6.6641 Q23.5112 7.2656 22.3862 7.2656 Q20.4644 7.2656 19.4644 5.7812 Q18.6675 4.5781 18.6675 2.8125 Q18.6675 0.6406 19.8394 -0.6484 Q21.0112 -1.9375 22.5894 -1.9375 Q23.9019 -1.9375 24.8706 -0.8516 Q25.8394 0.2344 25.9175 2.3594 ZM23.6362 1.7344 Q23.6362 0.2344 23.4722 -0.3203 Q23.3081 -0.875 22.9644 -1.1719 Q22.7769 -1.3281 22.4487 -1.3281 Q21.9644 -1.3281 21.6675 -0.8594 Q21.1206 -0.0312 21.1206 1.4062 L21.1206 1.7344 L23.6362 1.7344 ZM35.4443 -5.5781 L35.4443 4.4062 Q35.4443 5.4062 35.4912 5.5938 Q35.5693 5.9062 35.7803 6.0547 Q35.9912 6.2031 36.5068 6.2344 L36.5068 6.5469 L32.835 7.2656 L32.835 5.8906 Q32.1787 6.6875 31.6631 6.9766 Q31.1475 7.2656 30.5068 7.2656 Q28.8506 7.2656 27.8818 5.7812 Q27.1006 4.5625 27.1006 2.8125 Q27.1006 1.4219 27.585 0.3125 Q28.0693 -0.7969 28.9053 -1.3672 Q29.7412 -1.9375 30.71 -1.9375 Q31.335 -1.9375 31.8115 -1.6953 Q32.2881 -1.4531 32.835 -0.8438 L32.835 -3.4688 Q32.835 -4.4531 32.7568 -4.6562 Q32.6475 -4.9375 32.4209 -5.0625 Q32.1943 -5.1875 31.585 -5.1875 L31.585 -5.5781 L35.4443 -5.5781 ZM32.835 0.2969 Q32.1631 -1.0156 31.1631 -1.0156 Q30.8193 -1.0156 30.6006 -0.8281 Q30.2568 -0.5469 30.0381 0.1797 Q29.8193 0.9062 29.8193 2.3906 Q29.8193 4.0469 30.0615 4.8359 Q30.3037 5.625 30.71 5.9688 Q30.9287 6.1406 31.3037 6.1406 Q32.1162 6.1406 32.835 4.8594 L32.835 0.2969 ZM39.6675 -5.875 Q40.2612 -5.875 40.6831 -5.4531 Q41.105 -5.0312 41.105 -4.4375 Q41.105 -3.8438 40.6831 -3.4297 Q40.2612 -3.0156 39.6675 -3.0156 Q39.0737 -3.0156 38.6519 -3.4297 Q38.23 -3.8438 38.23 -4.4375 Q38.23 -5.0312 38.6519 -5.4531 Q39.0737 -5.875 39.6675 -5.875 ZM40.9644 -1.6719 L40.9644 5.2031 Q40.9644 6.125 41.1753 6.375 Q41.3862 6.625 42.0112 6.6719 L42.0112 7 L37.3237 7 L37.3237 6.6719 Q37.9019 6.6406 38.1831 6.3281 Q38.355 6.125 38.355 5.2031 L38.355 0.1406 Q38.355 -0.7812 38.144 -1.0391 Q37.9331 -1.2969 37.3237 -1.3281 L37.3237 -1.6719 L40.9644 -1.6719 ZM47.6338 5.7188 Q46.0557 7.125 44.79 7.125 Q44.0557 7.125 43.5635 6.6328 Q43.0713 6.1406 43.0713 5.4062 Q43.0713 4.4219 43.9229 3.625 Q44.7744 2.8281 47.6338 1.5156 L47.6338 0.6406 Q47.6338 -0.3438 47.5322 -0.5938 Q47.4307 -0.8438 47.1338 -1.0391 Q46.8369 -1.2344 46.4619 -1.2344 Q45.8525 -1.2344 45.4619 -0.9531 Q45.2275 -0.7969 45.2275 -0.5781 Q45.2275 -0.375 45.4932 -0.0938 Q45.8369 0.3125 45.8369 0.6875 Q45.8369 1.1406 45.501 1.4609 Q45.165 1.7812 44.6182 1.7812 Q44.0244 1.7812 43.6338 1.4297 Q43.2432 1.0781 43.2432 0.5938 Q43.2432 -0.0625 43.7744 -0.6719 Q44.3057 -1.2812 45.251 -1.6094 Q46.1963 -1.9375 47.2119 -1.9375 Q48.4463 -1.9375 49.165 -1.4141 Q49.8838 -0.8906 50.1025 -0.2812 Q50.2275 0.1094 50.2275 1.5156 L50.2275 4.8906 Q50.2275 5.4844 50.2744 5.6328 Q50.3213 5.7812 50.415 5.8594 Q50.5088 5.9375 50.6338 5.9375 Q50.8682 5.9375 51.1182 5.5938 L51.3994 5.8125 Q50.9307 6.5 50.4385 6.8125 Q49.9463 7.125 49.3057 7.125 Q48.5713 7.125 48.1494 6.7734 Q47.7275 6.4219 47.6338 5.7188 ZM47.6338 5.0469 L47.6338 2.1406 Q46.5244 2.7969 45.9619 3.5469 Q45.6025 4.0469 45.6025 4.5625 Q45.6025 4.9844 45.915 5.3125 Q46.1494 5.5625 46.5557 5.5625 Q47.0244 5.5625 47.6338 5.0469 ZM55.8994 -1.6719 L55.8994 -0.5469 Q56.5713 -1.2812 57.1807 -1.6094 Q57.79 -1.9375 58.4932 -1.9375 Q59.3369 -1.9375 59.8916 -1.4688 Q60.4463 -1 60.6338 -0.2969 Q60.79 0.2344 60.79 1.7344 L60.79 5.1094 Q60.79 6.1094 60.9697 6.3516 Q61.1494 6.5938 61.7275 6.6719 L61.7275 7 L57.3369 7 L57.3369 6.6719 Q57.8213 6.5938 58.04 6.25 Q58.1807 6.0312 58.1807 5.1094 L58.1807 1.25 Q58.1807 0.1875 58.1025 -0.0938 Q58.0244 -0.375 57.8213 -0.5312 Q57.6182 -0.6875 57.3838 -0.6875 Q56.5869 -0.6875 55.8994 0.4531 L55.8994 5.1094 Q55.8994 6.0781 56.0791 6.3359 Q56.2588 6.5938 56.7432 6.6719 L56.7432 7 L52.3682 7 L52.3682 6.6719 Q52.915 6.6094 53.1338 6.3125 Q53.3057 6.1094 53.3057 5.1094 L53.3057 0.2031 Q53.3057 -0.7812 53.1182 -1.0156 Q52.9307 -1.25 52.3682 -1.3281 L52.3682 -1.6719 L55.8994 -1.6719 Z"
         id="path3569" />
    </g>
    <g
       style="stroke-linecap:butt; fill:red; text-rendering:geometricPrecision; color-rendering:optimizeQuality; image-rendering:optimizeQuality; stroke-linejoin:round; color-interpolation:linearRGB; stroke:red; stroke-width:0.6667;"
       id="g3571">
      <line
         y2="97.3333"
         style="fill:none;"
         x1="569"
         x2="609"
         y1="97.3333"
         id="line3573" />
      <path
         d="M561 111 L561 61 L680 61 L680 111 Z"
         style="fill:none; fill-rule:evenodd; stroke-linejoin:miter; stroke:rgb(38,38,38);"
         id="path3575" />
    </g>
  </g>
</svg>
